<svg version="1.1" id="Layer_1" xmlns="http://www.w3.org/2000/svg" xmlns:xlink="http://www.w3.org/1999/xlink" x="0px" y="0px"
	 width="100%" viewBox="0 0 1440 1430" enable-background="new 0 0 1440 1430" xml:space="preserve">
<path fill="#000000" opacity="1.000000" stroke="none" 
	d="
M806.000000,1431.000000 
	C537.333374,1431.000000 269.166748,1431.000000 1.000108,1431.000000 
	C1.000072,954.333496 1.000072,477.666931 1.000036,1.000300 
	C480.999786,1.000200 960.999573,1.000200 1440.999512,1.000100 
	C1440.999756,477.666382 1440.999756,954.332764 1440.999878,1430.999512 
	C1229.500000,1431.000000 1018.000000,1431.000000 806.000000,1431.000000 
M1092.988770,709.113037 
	C1093.240845,708.117249 1093.492920,707.121460 1093.755615,706.104065 
	C1093.755615,706.104065 1093.774170,706.090332 1094.142334,705.201965 
	C1094.281738,697.082031 1094.581787,688.959900 1094.473267,680.843262 
	C1094.435181,677.999207 1095.416870,676.531128 1098.359619,675.902161 
	C1098.461182,675.525208 1098.562622,675.148254 1098.664185,674.771301 
	C1098.399170,674.765747 1098.134277,674.760254 1097.095459,674.297302 
	C1094.437622,674.446167 1091.779907,674.594971 1088.780396,674.447449 
	C1088.493164,674.857666 1088.205933,675.267883 1087.918823,675.678101 
	C1088.270996,675.708069 1088.623291,675.738037 1089.634155,676.280823 
	C1090.538818,677.764709 1092.167480,679.220764 1092.225708,680.737122 
	C1092.511475,688.178223 1092.379395,695.635376 1092.101440,703.372742 
	C1092.122681,703.905334 1092.144043,704.437988 1091.852783,705.663086 
	C1091.586914,706.634338 1091.321167,707.605652 1090.582031,709.223083 
	C1090.775391,709.598755 1090.968750,709.974426 1091.162231,710.349976 
	C1091.601196,710.073792 1092.040283,709.797607 1092.988770,709.113037 
M276.880310,688.413269 
	C276.220947,688.089905 275.561584,687.766541 274.554779,687.055237 
	C274.383057,687.029968 274.211365,687.004639 273.743652,686.470581 
	C272.799927,686.275330 271.856201,686.080078 270.253357,685.572815 
	C269.537109,685.587402 268.820831,685.601990 267.453888,685.270569 
	C265.797546,685.311096 264.133270,685.262817 262.486481,685.410095 
	C258.775146,685.742126 255.494904,686.930054 254.790161,691.128784 
	C254.280884,694.163025 255.566879,696.319702 258.903870,696.749329 
	C262.711853,697.239502 262.255981,694.561584 262.255127,692.224854 
	C262.254547,690.630859 262.255005,689.036926 262.255005,687.391724 
	C267.209412,686.625793 270.182587,687.515015 270.123657,692.680176 
	C270.118958,693.088806 270.884399,693.506165 271.143127,694.757324 
	C271.080414,696.166565 271.017700,697.575806 270.247437,699.359497 
	C265.987427,700.210449 261.640747,700.776611 257.504883,702.035645 
	C255.512772,702.642029 252.687912,704.350586 252.427795,705.922119 
	C252.023666,708.363892 252.752670,711.717041 254.307190,713.613464 
	C257.922180,718.023438 262.977631,717.929016 268.789917,715.977539 
	C270.027069,714.877502 271.264221,713.777405 273.199341,713.388794 
	C273.458893,713.596191 273.718414,713.803589 274.090240,714.614136 
	C275.727814,715.080322 277.365387,715.546509 279.734741,716.221375 
	C280.482788,716.183899 281.230804,716.146423 282.427887,716.402466 
	C283.229645,716.232666 284.031403,716.062866 285.762085,715.696289 
	C283.585876,714.741699 282.387268,714.215942 281.273926,713.023743 
	C281.220215,712.357727 281.166473,711.691650 281.424072,710.292358 
	C281.324829,706.516907 281.225586,702.741455 281.281067,698.311340 
	C281.199371,697.876831 281.117706,697.442383 281.250061,696.480469 
	C280.834259,695.318604 280.418457,694.156799 279.945343,692.404724 
	C279.627472,691.937805 279.309601,691.470825 278.850647,690.410522 
	C278.245789,689.923401 277.640930,689.436340 277.004669,689.002808 
	C277.004669,689.002808 277.052338,688.961365 276.880310,688.413269 
M244.923477,712.935974 
	C244.923477,712.935974 244.919998,712.848511 245.519836,712.704041 
	C246.098740,711.428223 246.677628,710.152466 247.640686,708.134644 
	C248.576462,702.762939 246.354813,698.879211 241.729660,695.537842 
	C241.107727,695.270691 240.485794,695.003540 239.457230,694.195557 
	C238.662369,693.784302 237.867508,693.373108 236.872849,692.443237 
	C236.207886,692.173523 235.542923,691.903809 234.429550,691.108276 
	C233.235153,690.428223 232.040741,689.748169 230.536880,688.483032 
	C229.143066,686.476807 227.749237,684.470581 226.497818,681.996826 
	C226.459641,681.513977 226.421463,681.031067 226.800583,680.117004 
	C226.990707,679.346558 227.180832,678.576172 227.704788,677.676941 
	C227.704788,677.676941 227.806641,677.333923 228.485703,677.179565 
	C233.303818,675.049255 236.636871,675.836304 239.690369,680.044067 
	C240.748978,681.502808 241.359940,683.280334 242.353561,684.795471 
	C242.728699,685.367371 243.581024,685.839966 244.265961,685.917969 
	C244.701385,685.967651 245.637833,685.221313 245.651169,684.809265 
	C245.763809,681.327087 245.715439,677.839722 245.715439,674.353882 
	C245.315323,673.910889 244.915207,673.467834 244.515091,673.024780 
	C241.423691,678.043518 238.464188,675.422607 235.309692,674.417419 
	C233.359329,673.795837 231.123505,674.070190 228.489944,673.840942 
	C228.323914,673.906555 228.157898,673.972229 227.388153,673.836731 
	C222.635864,674.528687 218.231735,675.732178 216.231522,681.859131 
	C216.615326,684.546448 216.999146,687.233704 217.400574,690.546692 
	C218.322891,691.560730 219.245209,692.574829 220.184525,693.820923 
	C220.184525,693.820923 220.416611,693.837708 220.569000,694.442627 
	C223.410553,696.153748 226.252121,697.864868 229.436707,699.945129 
	C229.601974,699.975281 229.767227,700.005371 230.140411,700.559021 
	C230.800293,700.830017 231.460190,701.101013 232.516876,701.770142 
	C232.690430,701.840759 232.863983,701.911438 233.226486,702.632996 
	C234.623398,704.389343 236.020325,706.145630 237.324005,708.628723 
	C237.357758,709.114929 237.391510,709.601074 237.033035,710.495483 
	C236.993713,711.038513 236.954391,711.581604 236.500519,712.723755 
	C236.376266,712.932434 236.252029,713.141052 235.386993,713.562988 
	C229.405075,717.482422 223.566132,715.784668 219.778610,709.104248 
	C218.943680,707.631531 217.842239,706.309875 216.863525,704.918701 
	C216.461945,705.127075 216.060364,705.335449 215.658783,705.543823 
	C215.658783,709.432617 215.658783,713.321350 215.658783,715.654846 
	C219.426392,716.187500 222.365814,716.750916 225.331192,716.983093 
	C228.699356,717.246887 232.090729,717.214355 236.002441,717.384705 
	C236.333313,717.263977 236.664185,717.143250 237.518127,717.220581 
	C239.034576,716.492310 240.551025,715.764038 242.571640,714.949829 
	C242.683655,714.821350 242.795654,714.692810 243.457108,714.550659 
	C243.917770,714.004639 244.378433,713.458679 244.923477,712.935974 
M334.999756,687.999023 
	C334.999756,687.999023 334.976654,688.014465 334.765198,687.465332 
	C333.167999,686.945862 331.570770,686.426392 329.287445,685.627502 
	C328.553864,685.560059 327.820282,685.492615 326.249084,685.060913 
	C326.007172,684.533386 325.765228,684.005798 325.523285,683.478210 
	C326.349579,683.320251 327.175873,683.162231 328.131165,682.956970 
	C328.131165,682.956970 328.086487,683.184265 328.086487,683.184265 
	C328.086487,683.184265 327.997650,683.004700 327.234131,682.567993 
	C329.165253,680.057251 331.096375,677.546509 333.115326,674.921570 
	C325.217194,673.052490 321.838562,676.992188 323.908539,684.127930 
	C320.506622,685.790039 317.240479,687.385864 313.998657,689.001709 
	C313.998657,689.001709 313.983582,688.975769 313.380890,689.050171 
	C312.946014,689.711914 312.511108,690.373657 311.608673,691.363586 
	C311.391907,691.883179 311.175140,692.402771 310.525848,693.053528 
	C310.349091,693.702698 310.172302,694.351929 309.716400,695.473206 
	C309.722687,695.834778 309.728943,696.196350 309.142670,697.025269 
	C309.775055,701.322754 310.407410,705.620300 311.226837,710.488159 
	C311.377319,710.619995 311.527771,710.751831 311.652130,711.412415 
	C312.133667,711.879456 312.615234,712.346497 313.068085,712.925110 
	C313.068085,712.925110 313.182068,712.908203 313.368378,713.534973 
	C321.313110,719.255798 331.097534,718.993286 336.928345,712.914246 
	C336.928345,712.914246 336.902802,712.787537 337.387878,712.610840 
	C337.707245,712.040771 338.026611,711.470764 338.813904,710.531006 
	C338.869690,710.340271 338.925476,710.149475 339.553040,709.602478 
	C339.793457,705.227478 340.033875,700.852478 340.382965,695.962891 
	C340.258362,695.642639 340.133728,695.322449 340.207367,694.610840 
	C339.829071,694.026245 339.450806,693.441711 338.954529,692.265686 
	C338.312012,691.508301 337.669495,690.750916 336.963684,689.378296 
	C336.304565,688.926331 335.645447,688.474365 334.999756,687.999023 
M1075.728394,713.262939 
	C1075.728394,713.262939 1075.404419,713.180969 1075.247314,712.497009 
	C1074.314209,710.114868 1073.381226,707.732666 1072.503052,704.501160 
	C1072.608032,695.138245 1072.713013,685.775269 1073.419678,676.311707 
	C1074.126465,675.962463 1074.833374,675.613159 1075.540161,675.263855 
	C1075.463623,674.982605 1075.386963,674.701416 1075.310425,674.420166 
	C1073.907715,674.420166 1072.504883,674.420166 1070.180054,674.330322 
	C1067.110962,674.416443 1064.041870,674.502502 1060.684082,674.239807 
	C1059.936523,674.444702 1059.188843,674.649536 1057.316650,675.162598 
	C1059.406128,675.687988 1060.301147,675.913025 1061.558838,676.568909 
	C1061.723877,676.658630 1061.888794,676.748291 1062.026123,677.791626 
	C1062.172852,686.153198 1062.319702,694.514832 1062.317261,703.659668 
	C1062.535889,704.409851 1062.754517,705.160034 1062.825317,706.536316 
	C1063.579102,707.954346 1064.333008,709.372314 1065.350464,711.413696 
	C1066.935303,712.592957 1068.520264,713.772217 1070.436035,715.487732 
	C1072.949829,715.963989 1075.463501,716.440247 1078.724854,717.123169 
	C1079.486694,717.058655 1080.248657,716.994141 1081.609741,717.145203 
	C1084.435791,715.774780 1087.261963,714.404358 1090.479004,712.144836 
	C1089.951050,712.024170 1089.422974,711.903442 1088.233887,712.090881 
	C1085.796875,713.196167 1083.359741,714.301514 1080.243286,715.213196 
	C1079.545654,715.115479 1078.847900,715.017761 1077.803589,714.484253 
	C1077.139648,714.184998 1076.475830,713.885742 1075.728394,713.262939 
M1256.719727,712.400574 
	C1255.460083,710.645081 1254.200317,708.889587 1252.721191,706.489380 
	C1251.969482,705.356445 1251.217773,704.223572 1250.456787,702.539062 
	C1249.986694,701.995483 1249.516602,701.451965 1248.958008,700.413635 
	C1248.833618,700.301514 1248.709106,700.189331 1248.397949,699.397644 
	C1248.527710,692.543335 1253.523682,689.669128 1259.906128,686.527344 
	C1254.849243,686.527344 1251.077637,686.527344 1245.832886,686.527344 
	C1248.314453,687.896057 1249.406250,688.498291 1251.499146,689.652588 
	C1248.934204,691.575439 1246.910156,693.092834 1244.662720,693.883423 
	C1244.197510,693.291016 1243.732178,692.698669 1243.237915,691.469055 
	C1239.341553,685.802063 1233.714111,684.242432 1227.058716,686.995850 
	C1227.243652,687.242676 1227.379883,687.611450 1227.624390,687.709412 
	C1228.056763,687.882629 1228.555176,687.890869 1229.010498,688.004944 
	C1229.010498,688.004944 1229.040039,687.974182 1229.328491,688.477295 
	C1229.872437,689.011047 1230.416382,689.544800 1231.045044,690.588562 
	C1231.177979,690.698364 1231.310791,690.808105 1231.466187,691.474060 
	C1231.973511,691.991028 1232.480835,692.507996 1233.066162,693.534668 
	C1233.178223,693.665100 1233.290283,693.795471 1233.391846,694.499756 
	C1233.896484,695.058777 1234.401245,695.617798 1235.087158,696.819580 
	C1235.630737,697.510803 1236.174316,698.202026 1236.702393,699.418152 
	C1237.139893,699.935059 1237.577271,700.451904 1238.175293,701.528503 
	C1238.324951,701.652100 1238.474609,701.775635 1238.754272,702.748169 
	C1237.458130,708.951721 1232.939453,712.400085 1226.377197,715.982788 
	C1231.562500,715.982788 1235.210205,715.982788 1240.010986,715.982788 
	C1237.885742,714.532288 1236.766846,713.768677 1235.299683,712.767273 
	C1237.411499,710.425354 1239.257935,708.377808 1241.562012,706.914856 
	C1242.286987,707.907288 1243.012085,708.899719 1243.721924,710.475525 
	C1244.479614,711.323120 1245.237305,712.170776 1246.222900,713.439758 
	C1246.391235,713.734436 1246.639526,713.924316 1247.098022,714.607056 
	C1248.734375,715.080261 1250.370728,715.553467 1252.837158,716.257080 
	C1254.552979,716.207581 1256.268799,716.158081 1258.452759,716.381897 
	C1259.270142,716.176025 1260.087402,715.970093 1261.425537,715.632935 
	C1259.502197,714.581848 1258.208252,713.874695 1256.943604,713.079529 
	C1256.943604,713.079529 1256.850952,713.073730 1256.719727,712.400574 
M1200.075073,689.057983 
	C1200.075073,689.057983 1200.074585,689.146057 1199.449463,689.283813 
	C1198.299072,691.856018 1197.148804,694.428284 1195.638306,697.673035 
	C1195.813354,700.461792 1195.988403,703.250610 1195.954346,706.550232 
	C1197.305908,708.687195 1198.657349,710.824158 1200.328369,713.386536 
	C1200.623779,713.576111 1200.919189,713.765747 1201.417114,714.554688 
	C1204.266479,715.328613 1207.115967,716.102600 1210.759033,717.098145 
	C1211.845337,717.025940 1212.931641,716.953735 1214.535522,717.137939 
	C1221.231812,715.204041 1223.867310,711.979370 1222.614380,708.716675 
	C1219.900635,710.841370 1216.967163,713.138062 1213.366333,715.297546 
	C1212.913330,715.316345 1212.460449,715.335144 1211.548340,715.035095 
	C1211.362793,715.052612 1211.177246,715.070190 1210.342529,714.742615 
	C1209.577148,714.194214 1208.811646,713.645813 1208.062866,712.492859 
	C1207.436401,711.213196 1206.809937,709.933533 1206.228149,707.779419 
	C1206.080688,706.330383 1205.933228,704.881348 1206.300659,703.086365 
	C1206.890015,702.912537 1207.479492,702.738708 1208.868164,702.732605 
	C1211.255371,702.445862 1213.642578,702.159058 1216.389893,702.080322 
	C1216.893555,701.923340 1217.397095,701.766296 1218.637573,701.709351 
	C1220.092163,701.470764 1221.546875,701.232178 1223.333618,701.237305 
	C1223.723145,700.796753 1224.112549,700.356201 1224.806519,699.145874 
	C1224.892822,690.410278 1220.525391,685.791321 1211.633301,685.328064 
	C1210.760986,685.437927 1209.888672,685.547791 1208.350708,685.427979 
	C1207.220459,685.676514 1206.090210,685.925110 1204.614380,685.989441 
	C1204.110840,686.341675 1203.607178,686.693909 1202.515381,687.186829 
	C1202.372925,687.329468 1202.230591,687.472168 1201.557373,687.561157 
	C1201.091431,688.068665 1200.625366,688.576111 1200.075073,689.057983 
M1121.949341,687.692871 
	C1123.110107,689.744995 1124.270996,691.797119 1125.268311,694.791748 
	C1125.512939,700.868591 1125.757446,706.945435 1126.013306,713.582520 
	C1129.461548,717.565979 1133.795898,715.632446 1137.162476,715.771973 
	C1136.440674,713.364929 1135.421387,711.329590 1135.288574,709.237976 
	C1135.014893,704.931152 1135.246216,700.593933 1135.212769,696.269714 
	C1135.149902,688.132385 1126.965820,682.341980 1119.586060,685.765381 
	C1116.111084,687.377441 1113.552124,688.500916 1109.853271,686.346008 
	C1108.082642,685.314514 1105.213501,686.168518 1102.315796,686.168518 
	C1106.902588,689.939148 1106.733154,711.839783 1102.605225,715.582581 
	C1107.938721,715.582581 1113.219116,715.582581 1117.482300,715.582581 
	C1116.777222,713.476929 1115.711792,711.615723 1115.599976,709.699036 
	C1115.329346,705.057190 1115.677612,700.380615 1115.443726,695.734802 
	C1115.245972,691.808838 1116.641479,688.981384 1120.442139,687.294434 
	C1120.442139,687.294434 1120.917725,687.362854 1120.917725,687.362854 
	C1120.917725,687.362854 1121.360718,687.177002 1121.949341,687.692871 
M363.822906,687.569824 
	C365.133667,688.014893 366.444427,688.459900 367.786926,689.446655 
	C368.146820,690.048462 368.506744,690.650330 368.809784,691.854919 
	C368.905548,692.244385 369.001343,692.633789 368.877777,693.792419 
	C368.884125,698.263977 368.887054,702.735596 368.897522,707.207153 
	C368.917572,715.770081 374.419861,718.932556 381.360992,715.539795 
	C380.590088,713.305115 379.491821,711.346802 379.288544,709.299622 
	C378.709290,703.464844 378.494446,697.593933 378.040955,691.117493 
	C377.576965,690.449829 377.112946,689.782227 376.559174,688.598083 
	C376.008423,688.250061 375.457672,687.902100 374.555023,687.113220 
	C374.370819,687.075134 374.186646,687.037048 373.681641,686.410278 
	C370.316742,686.203552 366.951813,685.996826 363.222351,685.772400 
	C363.222351,685.772400 363.017914,686.074768 362.259644,686.034607 
	C360.952606,686.969055 359.645538,687.903442 358.338501,688.837830 
	C358.378174,688.426392 358.417877,688.014893 358.457581,687.603394 
	C354.502899,686.792358 350.548248,685.981323 346.398071,685.130188 
	C347.803589,688.139099 348.734039,690.130920 349.461243,693.021484 
	C349.487244,699.721313 349.513245,706.421143 348.956451,713.417908 
	C348.031738,714.018921 347.107025,714.619934 345.602020,715.598083 
	C351.945160,715.598083 357.371307,715.598083 363.836395,715.598083 
	C361.550812,714.262085 360.326263,713.546265 359.183472,711.918335 
	C359.141571,705.948792 359.099670,699.979248 359.321869,693.362305 
	C360.536743,691.423401 361.751648,689.484558 363.822906,687.569824 
M1168.294800,701.562561 
	C1170.227295,702.540771 1172.159912,703.519043 1174.593384,704.921021 
	C1175.381958,705.287476 1176.170532,705.653931 1177.283447,706.673462 
	C1179.846191,708.403625 1182.228760,710.891663 1179.402222,713.430786 
	C1177.878296,714.799805 1174.071777,714.734558 1171.841309,713.884033 
	C1169.807129,713.108398 1168.529541,710.382202 1166.880249,708.550171 
	C1165.968994,707.537781 1164.979126,706.596252 1163.227539,704.809875 
	C1163.227539,709.627930 1163.227539,712.971985 1163.227539,715.231445 
	C1166.882202,715.856201 1169.828125,716.715271 1172.791870,716.781860 
	C1177.064697,716.877808 1181.513428,717.039062 1185.589966,716.003296 
	C1190.762939,714.688843 1192.148315,710.324097 1189.755005,704.468201 
	C1188.500366,703.313538 1187.245728,702.158875 1185.717529,700.413635 
	C1182.314697,698.385925 1178.695679,696.629456 1175.625854,694.183838 
	C1174.547363,693.324768 1174.815918,690.774841 1174.469360,688.996948 
	C1176.371948,688.648071 1178.895752,687.372925 1180.046753,688.144836 
	C1182.377686,689.707886 1183.944458,692.398132 1185.870605,694.584473 
	C1186.462402,695.256287 1187.121948,696.008911 1187.907593,696.298523 
	C1188.209717,696.409912 1189.386963,695.357605 1189.416382,694.796204 
	C1189.572144,691.823242 1189.489624,688.837830 1189.489624,687.091736 
	C1185.480103,686.572327 1182.853760,686.211243 1180.221680,685.899414 
	C1178.786011,685.729309 1177.340576,685.642639 1175.209839,685.336060 
	C1173.810059,685.542480 1172.410156,685.748840 1170.445435,685.779175 
	C1162.538818,688.103516 1160.807129,693.229980 1166.213379,699.627869 
	C1166.823975,700.078308 1167.434692,700.528748 1168.294800,701.562561 
M695.499268,606.155701 
	C672.574158,606.155701 649.649048,606.155701 626.237671,606.155701 
	C626.237671,614.311523 626.183838,621.945068 626.288513,629.576538 
	C626.306824,630.913574 626.996216,633.379761 627.366394,633.378052 
	C629.035461,633.370056 630.956421,633.031189 632.298523,632.104614 
	C633.728882,631.117371 635.005737,629.494812 635.660461,627.871643 
	C637.934326,622.234497 639.909241,616.476746 642.091675,610.508179 
	C646.741089,610.508179 652.135620,610.508179 657.491516,610.508179 
	C657.709167,611.317078 657.947205,611.789368 657.947510,612.261719 
	C657.966919,642.921082 657.932556,673.580566 658.027527,704.239624 
	C658.036072,707.000305 656.979309,708.038452 654.462463,708.530396 
	C652.473999,708.919189 650.585327,709.818481 648.652344,710.491028 
	C648.794250,710.886230 648.936218,711.281494 649.078125,711.676758 
	C663.407654,711.676758 677.737122,711.676758 692.066589,711.676758 
	C691.325745,710.128296 690.398254,709.279663 689.448792,709.254272 
	C683.497009,709.094666 683.020264,705.549072 683.055298,700.601624 
	C683.255981,672.276123 683.141418,643.948486 683.152954,615.621521 
	C683.153687,613.876282 683.317566,612.131165 683.400940,610.477722 
	C689.343018,610.477722 694.598389,610.477722 698.469727,610.477722 
	C701.439026,617.579224 703.839722,624.049194 706.857605,630.217163 
	C708.270508,633.104614 711.008301,635.008667 714.652222,633.038757 
	C714.652222,624.128784 714.652222,615.369690 714.652222,606.154358 
	C708.429932,606.154358 702.464355,606.154358 695.499268,606.155701 
M800.150269,700.494812 
	C799.483765,701.239807 798.844238,702.011108 798.146545,702.725586 
	C791.728333,709.297852 784.121155,712.103455 775.022156,709.774902 
	C766.494873,707.592651 761.862244,701.486938 760.041565,693.379700 
	C758.773499,687.733154 758.057922,681.853210 757.988098,676.066711 
	C757.740845,655.571350 757.958130,635.070740 757.780884,614.573914 
	C757.754150,611.483154 758.989502,610.502686 761.610840,609.943604 
	C763.507812,609.538879 765.312683,608.702271 767.158630,608.058228 
	C767.054932,607.601929 766.951294,607.145569 766.847656,606.689209 
	C752.508789,606.689209 738.169861,606.689209 723.830994,606.689209 
	C723.721497,607.117249 723.612000,607.545227 723.502502,607.973267 
	C724.700195,608.478943 725.872192,609.338928 727.100159,609.428162 
	C732.095459,609.791504 732.936951,612.523438 732.874084,617.098938 
	C732.615112,635.926636 732.624023,654.763000 732.914795,673.590210 
	C732.998535,679.016479 733.595825,684.670166 735.263123,689.794922 
	C741.784485,709.839905 770.293030,721.087341 791.330383,712.057739 
	C806.525452,705.535828 812.374023,692.653503 812.844788,677.217163 
	C813.403320,658.902100 813.002563,640.557739 813.013367,622.226074 
	C813.018616,613.380676 813.026550,613.411133 821.284790,610.065613 
	C822.757385,609.469055 824.080383,608.503113 825.472473,607.707825 
	C825.253723,607.338501 825.034973,606.969177 824.816284,606.599854 
	C815.322449,606.599854 805.828613,606.599854 796.334839,606.599854 
	C796.151306,607.125977 795.967773,607.652100 795.784241,608.178223 
	C798.331177,609.256714 800.806091,610.581543 803.442871,611.353088 
	C806.956116,612.381042 808.388489,614.116455 808.338989,618.063416 
	C808.102905,636.892151 808.197693,655.725586 808.249695,674.557129 
	C808.275208,683.808350 806.135559,692.362488 800.150269,700.494812 
M496.251099,709.212219 
	C506.158020,714.949768 516.757874,711.637573 527.180603,712.116943 
	C526.705811,710.697449 526.075439,709.684082 525.365967,709.625305 
	C520.378296,709.212219 518.681824,705.772156 517.001343,701.695862 
	C504.314667,670.922607 491.489441,640.206238 478.566986,609.531250 
	C477.792542,607.692810 475.811798,606.362488 474.392303,604.795776 
	C472.943970,606.293213 470.885773,607.535950 470.138031,609.325989 
	C457.314575,640.026123 444.589294,670.767883 432.051819,701.585693 
	C430.762878,704.753967 428.909821,706.349548 425.877930,707.324890 
	C423.129425,708.209167 420.501495,709.468262 417.820404,710.562134 
	C418.003296,711.063354 418.186188,711.564575 418.369080,712.065796 
	C427.745728,712.065796 437.122375,712.065796 446.499054,712.065796 
	C446.615417,711.643799 446.731812,711.221741 446.848175,710.799744 
	C443.128204,709.038086 439.408234,707.276367 435.286621,705.324524 
	C438.407562,697.825867 441.267914,690.756165 444.350677,683.784790 
	C444.756805,682.866272 446.292267,681.898438 447.315979,681.885986 
	C458.469330,681.750671 469.624939,681.801270 480.891022,681.801270 
	C483.026825,686.741821 484.745667,691.643677 487.203613,696.141724 
	C489.630249,700.582458 492.804321,704.614929 496.251099,709.212219 
M891.740967,630.373169 
	C888.581360,622.867065 885.525696,615.313843 882.166504,607.898132 
	C881.560181,606.559631 879.781006,605.134216 878.401550,604.974792 
	C877.432434,604.862671 875.954956,606.664551 875.186401,607.909241 
	C874.154053,609.580933 873.576538,611.535522 872.820557,613.375549 
	C860.758301,642.733093 848.771545,672.122375 836.502014,701.393066 
	C835.509460,703.760925 832.812195,705.680420 830.491211,707.152588 
	C828.010864,708.725830 825.037354,709.521545 822.279114,710.656677 
	C822.421326,711.065491 822.563477,711.474243 822.705688,711.883057 
	C832.102661,711.883057 841.499573,711.883057 850.896545,711.883057 
	C850.995300,711.416504 851.094116,710.949890 851.192871,710.483337 
	C847.498657,708.911926 843.804443,707.340515 839.700012,705.594604 
	C842.852295,697.949646 845.727173,690.724792 848.885376,683.625977 
	C849.298340,682.697815 851.160461,681.929382 852.362244,681.913513 
	C862.348267,681.781921 872.340088,681.723938 882.321472,681.978943 
	C883.813477,682.017090 885.927734,683.466980 886.609680,684.834473 
	C889.129150,689.887024 891.051819,695.232788 893.415710,700.368408 
	C896.927979,707.999146 902.950562,712.162476 911.397217,712.449951 
	C917.216980,712.648010 923.046143,712.611755 928.870667,712.582520 
	C929.853210,712.577637 930.833252,712.077087 931.814453,711.805603 
	C930.357727,710.029175 928.599365,709.682739 927.216003,708.768738 
	C925.546631,707.665955 923.527222,706.364624 922.806885,704.663330 
	C912.441589,680.182678 902.269714,655.620056 891.740967,630.373169 
M531.348755,666.677673 
	C532.319336,678.556946 535.461975,689.711792 543.584595,698.752930 
	C556.081909,712.663513 572.366821,716.346436 589.990601,713.602600 
	C604.699097,711.312622 616.190796,698.434875 616.950256,685.338257 
	C617.019775,684.139709 616.174194,682.888000 615.753540,681.661011 
	C614.881165,682.733521 613.408020,683.716980 613.233704,684.893005 
	C612.075684,692.706726 608.236694,698.907715 602.353821,703.954163 
	C589.666748,714.837402 572.144226,711.662964 564.270447,696.947510 
	C562.717590,694.045349 561.562805,690.839417 560.766235,687.638794 
	C556.894104,672.079651 556.774536,656.227112 558.957031,640.527466 
	C560.054810,632.631042 562.413208,624.468689 566.165894,617.481750 
	C572.446960,605.787354 586.141296,603.783325 595.732300,612.975281 
	C600.598694,617.639160 604.235718,623.932312 607.235474,630.071838 
	C609.146973,633.984009 610.862427,635.041565 614.806152,633.631653 
	C614.806152,624.355591 614.806152,615.131714 614.806152,605.818542 
	C608.226929,604.040527 606.392334,610.314575 602.482605,612.646912 
	C580.455627,594.374023 545.320862,604.571655 535.093445,633.287354 
	C531.345764,643.809692 530.506958,654.710266 531.348755,666.677673 
M970.440369,620.539246 
	C968.631287,612.838867 972.576050,609.015625 980.637817,607.966614 
	C980.241699,607.536743 979.845581,607.106873 979.449463,606.677002 
	C965.115295,606.677002 950.781189,606.677002 936.447083,606.677002 
	C936.341614,607.134644 936.236084,607.592346 936.130615,608.049988 
	C937.609802,608.610474 939.050354,609.477783 940.575989,609.670044 
	C944.204651,610.127380 945.366333,611.781189 945.343567,615.567383 
	C945.167786,644.714172 945.156677,673.863159 945.355652,703.009705 
	C945.382935,707.011414 944.057007,708.690552 940.348816,709.282654 
	C938.905518,709.513184 937.571350,710.427429 936.187500,711.030212 
	C936.324829,711.444092 936.462097,711.857971 936.599426,712.271851 
	C963.277527,712.271851 989.955627,712.271851 1016.832520,712.271851 
	C1016.832520,703.271301 1016.832520,694.405579 1016.832520,684.834045 
	C1014.653992,685.392273 1012.495728,685.303650 1011.376099,686.338562 
	C1005.045410,692.190125 1003.250793,700.105835 1002.483398,708.611206 
	C993.302368,708.611206 984.498657,708.404541 975.712097,708.702637 
	C971.612488,708.841675 970.342468,707.714417 970.370422,703.478638 
	C970.550598,676.164124 970.449280,648.847717 970.440369,620.539246 
M291.822449,704.476440 
	C290.951477,708.218933 294.272827,713.162048 287.405945,715.942505 
	C293.975647,715.942505 299.299683,715.942505 303.785248,715.942505 
	C303.122559,713.879700 302.022369,711.989929 301.984985,710.079346 
	C301.799683,700.607178 301.902252,691.129395 301.888458,681.653625 
	C301.879822,675.695557 300.648712,674.456604 294.556793,674.295349 
	C292.614960,674.243896 290.670563,674.287292 289.388153,674.287292 
	C290.324188,676.871033 291.657043,678.936462 291.731323,681.046265 
	C291.994232,688.517639 291.826996,696.004211 291.822449,704.476440 
M1145.654175,712.138428 
	C1144.704590,713.524902 1143.755127,714.911377 1142.754883,716.371826 
	C1148.032349,716.371826 1153.231323,716.371826 1157.655762,716.371826 
	C1156.980103,714.135193 1155.924561,712.118408 1155.833008,710.058655 
	C1155.568115,704.099976 1155.946899,698.105469 1155.513916,692.165710 
	C1155.375122,690.260742 1153.812378,687.285034 1152.344482,686.895325 
	C1149.260620,686.076660 1145.808105,686.646667 1143.568481,686.646667 
	C1144.352051,688.755798 1145.520020,690.521179 1145.586304,692.326965 
	C1145.817505,698.619446 1145.667480,704.925903 1145.654175,712.138428 
M1149.712646,674.392822 
	C1146.678223,674.780334 1145.094971,676.708374 1145.982422,679.462341 
	C1146.450684,680.915894 1148.592651,682.691345 1150.019165,682.727356 
	C1151.382690,682.761719 1153.563477,680.978271 1154.026123,679.552856 
	C1154.893555,676.879517 1153.534790,674.779907 1149.712646,674.392822 
z"/>
<path fill="#F8F8F8" opacity="1.000000" stroke="none" 
	d="
M695.999023,606.155029 
	C702.464355,606.154358 708.429932,606.154358 714.652222,606.154358 
	C714.652222,615.369690 714.652222,624.128784 714.652222,633.038757 
	C711.008301,635.008667 708.270508,633.104614 706.857605,630.217163 
	C703.839722,624.049194 701.439026,617.579224 698.469727,610.477722 
	C694.598389,610.477722 689.343018,610.477722 683.400940,610.477722 
	C683.317566,612.131165 683.153687,613.876282 683.152954,615.621521 
	C683.141418,643.948486 683.255981,672.276123 683.055298,700.601624 
	C683.020264,705.549072 683.497009,709.094666 689.448792,709.254272 
	C690.398254,709.279663 691.325745,710.128296 692.066589,711.676758 
	C677.737122,711.676758 663.407654,711.676758 649.078125,711.676758 
	C648.936218,711.281494 648.794250,710.886230 648.652344,710.491028 
	C650.585327,709.818481 652.473999,708.919189 654.462463,708.530396 
	C656.979309,708.038452 658.036072,707.000305 658.027527,704.239624 
	C657.932556,673.580566 657.966919,642.921082 657.947510,612.261719 
	C657.947205,611.789368 657.709167,611.317078 657.491516,610.508179 
	C652.135620,610.508179 646.741089,610.508179 642.091675,610.508179 
	C639.909241,616.476746 637.934326,622.234497 635.660461,627.871643 
	C635.005737,629.494812 633.728882,631.117371 632.298523,632.104614 
	C630.956421,633.031189 629.035461,633.370056 627.366394,633.378052 
	C626.996216,633.379761 626.306824,630.913574 626.288513,629.576538 
	C626.183838,621.945068 626.237671,614.311523 626.237671,606.155701 
	C649.649048,606.155701 672.574158,606.155701 695.999023,606.155029 
z"/>
<path fill="#F4F4F4" opacity="1.000000" stroke="none" 
	d="
M800.395203,700.214722 
	C806.135559,692.362488 808.275208,683.808350 808.249695,674.557129 
	C808.197693,655.725586 808.102905,636.892151 808.338989,618.063416 
	C808.388489,614.116455 806.956116,612.381042 803.442871,611.353088 
	C800.806091,610.581543 798.331177,609.256714 795.784241,608.178223 
	C795.967773,607.652100 796.151306,607.125977 796.334839,606.599854 
	C805.828613,606.599854 815.322449,606.599854 824.816284,606.599854 
	C825.034973,606.969177 825.253723,607.338501 825.472473,607.707825 
	C824.080383,608.503113 822.757385,609.469055 821.284790,610.065613 
	C813.026550,613.411133 813.018616,613.380676 813.013367,622.226074 
	C813.002563,640.557739 813.403320,658.902100 812.844788,677.217163 
	C812.374023,692.653503 806.525452,705.535828 791.330383,712.057739 
	C770.293030,721.087341 741.784485,709.839905 735.263123,689.794922 
	C733.595825,684.670166 732.998535,679.016479 732.914795,673.590210 
	C732.624023,654.763000 732.615112,635.926636 732.874084,617.098938 
	C732.936951,612.523438 732.095459,609.791504 727.100159,609.428162 
	C725.872192,609.338928 724.700195,608.478943 723.502502,607.973267 
	C723.612000,607.545227 723.721497,607.117249 723.830994,606.689209 
	C738.169861,606.689209 752.508789,606.689209 766.847656,606.689209 
	C766.951294,607.145569 767.054932,607.601929 767.158630,608.058228 
	C765.312683,608.702271 763.507812,609.538879 761.610840,609.943604 
	C758.989502,610.502686 757.754150,611.483154 757.780884,614.573914 
	C757.958130,635.070740 757.740845,655.571350 757.988098,676.066711 
	C758.057922,681.853210 758.773499,687.733154 760.041565,693.379700 
	C761.862244,701.486938 766.494873,707.592651 775.022156,709.774902 
	C784.121155,712.103455 791.728333,709.297852 798.146545,702.725586 
	C798.844238,702.011108 799.483765,701.239807 800.395203,700.214722 
z"/>
<path fill="#F4F4F4" opacity="1.000000" stroke="none" 
	d="
M495.950806,709.019348 
	C492.804321,704.614929 489.630249,700.582458 487.203613,696.141724 
	C484.745667,691.643677 483.026825,686.741821 480.891022,681.801270 
	C469.624939,681.801270 458.469330,681.750671 447.315979,681.885986 
	C446.292267,681.898438 444.756805,682.866272 444.350677,683.784790 
	C441.267914,690.756165 438.407562,697.825867 435.286621,705.324524 
	C439.408234,707.276367 443.128204,709.038086 446.848175,710.799744 
	C446.731812,711.221741 446.615417,711.643799 446.499054,712.065796 
	C437.122375,712.065796 427.745728,712.065796 418.369080,712.065796 
	C418.186188,711.564575 418.003296,711.063354 417.820404,710.562134 
	C420.501495,709.468262 423.129425,708.209167 425.877930,707.324890 
	C428.909821,706.349548 430.762878,704.753967 432.051819,701.585693 
	C444.589294,670.767883 457.314575,640.026123 470.138031,609.325989 
	C470.885773,607.535950 472.943970,606.293213 474.392334,604.795776 
	C475.811798,606.362488 477.792542,607.692810 478.566986,609.531250 
	C491.489441,640.206238 504.314667,670.922607 517.001343,701.695862 
	C518.681824,705.772156 520.378296,709.212219 525.365967,709.625305 
	C526.075439,709.684082 526.705811,710.697449 527.180603,712.116943 
	C516.757874,711.637573 506.158020,714.949768 495.950806,709.019348 
M459.334747,646.848145 
	C455.202118,656.890991 451.069458,666.933838 446.738770,677.457947 
	C457.797638,677.457947 468.098389,677.457947 479.252625,677.457947 
	C473.798981,664.309387 468.605560,651.788269 462.903168,638.039978 
	C461.475128,641.633057 460.574249,643.899719 459.334747,646.848145 
z"/>
<path fill="#F4F4F4" opacity="1.000000" stroke="none" 
	d="
M891.896118,630.725220 
	C902.269714,655.620056 912.441589,680.182678 922.806885,704.663330 
	C923.527222,706.364624 925.546631,707.665955 927.216003,708.768738 
	C928.599365,709.682739 930.357727,710.029175 931.814453,711.805603 
	C930.833252,712.077087 929.853210,712.577637 928.870667,712.582520 
	C923.046143,712.611755 917.216980,712.648010 911.397217,712.449951 
	C902.950562,712.162476 896.927979,707.999146 893.415710,700.368408 
	C891.051819,695.232788 889.129150,689.887024 886.609680,684.834473 
	C885.927734,683.466980 883.813477,682.017090 882.321472,681.978943 
	C872.340088,681.723938 862.348267,681.781921 852.362244,681.913513 
	C851.160461,681.929382 849.298340,682.697815 848.885376,683.625977 
	C845.727173,690.724792 842.852295,697.949646 839.700012,705.594604 
	C843.804443,707.340515 847.498657,708.911926 851.192871,710.483337 
	C851.094116,710.949890 850.995300,711.416504 850.896545,711.883057 
	C841.499573,711.883057 832.102661,711.883057 822.705688,711.883057 
	C822.563477,711.474243 822.421326,711.065491 822.279114,710.656677 
	C825.037354,709.521545 828.010864,708.725830 830.491211,707.152588 
	C832.812195,705.680420 835.509460,703.760925 836.502014,701.393066 
	C848.771545,672.122375 860.758301,642.733093 872.820557,613.375549 
	C873.576538,611.535522 874.154053,609.580933 875.186401,607.909241 
	C875.954956,606.664551 877.432434,604.862671 878.401550,604.974792 
	C879.781006,605.134216 881.560181,606.559631 882.166504,607.898132 
	C885.525696,615.313843 888.581360,622.867065 891.896118,630.725220 
M860.986145,653.496582 
	C857.776367,661.401062 854.566650,669.305603 851.209656,677.572876 
	C862.430054,677.572876 872.677673,677.572876 883.790588,677.572876 
	C878.338440,664.501526 873.110718,651.968323 867.423828,638.334229 
	C864.999451,643.965210 863.106018,648.362976 860.986145,653.496582 
z"/>
<path fill="#F4F4F4" opacity="1.000000" stroke="none" 
	d="
M531.329285,666.230103 
	C530.506958,654.710266 531.345764,643.809692 535.093445,633.287354 
	C545.320862,604.571655 580.455627,594.374023 602.482605,612.646912 
	C606.392334,610.314575 608.226929,604.040527 614.806152,605.818542 
	C614.806152,615.131714 614.806152,624.355591 614.806152,633.631653 
	C610.862427,635.041565 609.146973,633.984009 607.235474,630.071838 
	C604.235718,623.932312 600.598694,617.639160 595.732300,612.975281 
	C586.141296,603.783325 572.446960,605.787354 566.165894,617.481750 
	C562.413208,624.468689 560.054810,632.631042 558.957031,640.527466 
	C556.774536,656.227112 556.894104,672.079651 560.766235,687.638794 
	C561.562805,690.839417 562.717590,694.045349 564.270447,696.947510 
	C572.144226,711.662964 589.666748,714.837402 602.353821,703.954163 
	C608.236694,698.907715 612.075684,692.706726 613.233704,684.893005 
	C613.408020,683.716980 614.881165,682.733521 615.753540,681.661011 
	C616.174194,682.888000 617.019775,684.139709 616.950256,685.338257 
	C616.190796,698.434875 604.699097,711.312622 589.990601,713.602600 
	C572.366821,716.346436 556.081909,712.663513 543.584595,698.752930 
	C535.461975,689.711792 532.319336,678.556946 531.329285,666.230103 
z"/>
<path fill="#F6F6F6" opacity="1.000000" stroke="none" 
	d="
M970.440369,621.035645 
	C970.449280,648.847717 970.550598,676.164124 970.370422,703.478638 
	C970.342468,707.714417 971.612488,708.841675 975.712097,708.702637 
	C984.498657,708.404541 993.302368,708.611206 1002.483398,708.611206 
	C1003.250793,700.105835 1005.045410,692.190125 1011.376099,686.338562 
	C1012.495728,685.303650 1014.653992,685.392273 1016.832520,684.834045 
	C1016.832520,694.405579 1016.832520,703.271301 1016.832520,712.271851 
	C989.955627,712.271851 963.277527,712.271851 936.599426,712.271851 
	C936.462097,711.857971 936.324829,711.444092 936.187500,711.030212 
	C937.571350,710.427429 938.905518,709.513184 940.348816,709.282654 
	C944.057007,708.690552 945.382935,707.011414 945.355652,703.009705 
	C945.156677,673.863159 945.167786,644.714172 945.343567,615.567383 
	C945.366333,611.781189 944.204651,610.127380 940.575989,609.670044 
	C939.050354,609.477783 937.609802,608.610474 936.130615,608.049988 
	C936.236084,607.592346 936.341614,607.134644 936.447083,606.677002 
	C950.781189,606.677002 965.115295,606.677002 979.449463,606.677002 
	C979.845581,607.106873 980.241699,607.536743 980.637817,607.966614 
	C972.576050,609.015625 968.631287,612.838867 970.440369,621.035645 
z"/>
<path fill="#EEEEEE" opacity="1.000000" stroke="none" 
	d="
M291.822632,703.980713 
	C291.826996,696.004211 291.994232,688.517639 291.731323,681.046265 
	C291.657043,678.936462 290.324188,676.871033 289.388153,674.287292 
	C290.670563,674.287292 292.614960,674.243896 294.556793,674.295349 
	C300.648712,674.456604 301.879822,675.695557 301.888458,681.653625 
	C301.902252,691.129395 301.799683,700.607178 301.984985,710.079346 
	C302.022369,711.989929 303.122559,713.879700 303.785248,715.942505 
	C299.299683,715.942505 293.975647,715.942505 287.405945,715.942505 
	C294.272827,713.162048 290.951477,708.218933 291.822632,703.980713 
z"/>
<path fill="#EAEAEA" opacity="1.000000" stroke="none" 
	d="
M1120.017822,687.069336 
	C1116.641479,688.981384 1115.245972,691.808838 1115.443726,695.734802 
	C1115.677612,700.380615 1115.329346,705.057190 1115.599976,709.699036 
	C1115.711792,711.615723 1116.777222,713.476929 1117.482300,715.582581 
	C1113.219116,715.582581 1107.938721,715.582581 1102.605225,715.582581 
	C1106.733154,711.839783 1106.902588,689.939148 1102.315796,686.168518 
	C1105.213501,686.168518 1108.082642,685.314514 1109.853271,686.346008 
	C1113.552124,688.500916 1116.111084,687.377441 1119.586060,685.765381 
	C1126.965820,682.341980 1135.149902,688.132385 1135.212769,696.269714 
	C1135.246216,700.593933 1135.014893,704.931152 1135.288574,709.237976 
	C1135.421387,711.329590 1136.440674,713.364929 1137.162476,715.771973 
	C1133.795898,715.632446 1129.461548,717.565979 1126.305908,713.409424 
	C1128.985474,713.965149 1131.372437,714.693909 1134.000000,715.496216 
	C1134.000000,711.390198 1134.000610,708.279358 1133.999756,705.168518 
	C1133.998779,702.020813 1134.063599,698.871277 1133.981079,695.725708 
	C1133.791138,688.483215 1127.056274,684.331177 1120.017822,687.069336 
z"/>
<path fill="#F4F4F4" opacity="1.000000" stroke="none" 
	d="
M236.127808,713.349670 
	C236.252029,713.141052 236.376266,712.932434 236.920715,712.342773 
	C237.369019,711.336975 237.397141,710.712097 237.425262,710.087280 
	C237.391510,709.601074 237.357758,709.114929 237.568237,708.034180 
	C236.220810,705.620422 234.629166,703.801270 233.037521,701.982056 
	C232.863983,701.911438 232.690430,701.840759 232.239197,701.290527 
	C231.285187,700.552429 230.608826,700.293884 229.932480,700.035400 
	C229.767227,700.005371 229.601974,699.975281 229.192154,699.444458 
	C226.103928,697.241760 223.260254,695.539734 220.416595,693.837769 
	C220.416611,693.837708 220.184525,693.820923 220.144409,693.396484 
	C219.197189,691.955017 218.290070,690.937988 217.382950,689.921021 
	C216.999146,687.233704 216.615326,684.546448 216.753723,681.396240 
	C220.847916,678.634827 224.419891,676.336365 227.991882,674.037842 
	C228.157898,673.972229 228.323914,673.906555 228.748230,674.200317 
	C228.606567,675.484375 228.206604,676.409180 227.806641,677.333923 
	C227.806641,677.333923 227.704788,677.676941 227.219604,677.868286 
	C226.617355,678.889221 226.500320,679.718689 226.383286,680.548218 
	C226.421463,681.031067 226.459641,681.513977 226.281738,682.606628 
	C227.659210,685.166992 229.252777,687.117493 230.846344,689.068054 
	C232.040741,689.748169 233.235153,690.428223 234.734192,691.649902 
	C235.716782,692.448242 236.394730,692.705017 237.072662,692.961914 
	C237.867508,693.373108 238.662369,693.784302 239.721313,694.738831 
	C240.635788,695.531616 241.286194,695.781067 241.936584,696.030579 
	C246.354813,698.879211 248.576462,702.762939 247.178696,708.626282 
	C246.117813,710.361450 245.518906,711.604980 244.920013,712.848511 
	C244.919998,712.848511 244.923477,712.935974 244.593567,712.922974 
	C243.811661,713.461426 243.359665,714.012878 242.907684,714.564270 
	C242.795654,714.692810 242.683655,714.821350 241.962585,714.959717 
	C239.900696,715.653870 238.447861,716.338196 236.995041,717.022461 
	C236.664185,717.143250 236.333313,717.263977 235.481720,717.204163 
	C234.851334,716.573486 234.525864,716.027649 234.674652,715.692139 
	C235.043610,714.860168 235.629211,714.124207 236.127808,713.349670 
z"/>
<path fill="#EEEEEE" opacity="1.000000" stroke="none" 
	d="
M1062.973145,705.910217 
	C1062.754517,705.160034 1062.535889,704.409851 1062.610596,702.929810 
	C1062.949829,696.756104 1063.115234,691.309509 1062.994629,685.869263 
	C1062.927612,682.853333 1062.382935,679.848022 1062.053589,676.837891 
	C1061.888794,676.748291 1061.723877,676.658630 1061.395874,676.153442 
	C1061.146118,675.354858 1061.059448,674.971741 1060.972778,674.588623 
	C1064.041870,674.502502 1067.110962,674.416443 1070.775635,674.568970 
	C1071.853394,675.342590 1072.335693,675.877441 1072.817993,676.412354 
	C1072.713013,685.775269 1072.608032,695.138245 1072.340576,705.310364 
	C1073.253662,708.473389 1074.328979,710.827148 1075.404419,713.180969 
	C1075.404419,713.180969 1075.728394,713.262939 1075.851685,713.724609 
	C1076.700073,714.430786 1077.425171,714.675354 1078.150269,714.919983 
	C1078.847900,715.017761 1079.545654,715.115479 1080.533447,715.563660 
	C1080.885742,716.252625 1080.948120,716.591125 1081.010498,716.929626 
	C1080.248657,716.994141 1079.486694,717.058655 1078.097656,716.754089 
	C1075.015381,715.907166 1072.560303,715.429321 1070.105103,714.951477 
	C1068.520264,713.772217 1066.935303,712.592957 1065.216309,710.786621 
	C1064.379150,708.743042 1063.676147,707.326599 1062.973145,705.910217 
z"/>
<path fill="#EAEAEA" opacity="1.000000" stroke="none" 
	d="
M1145.658203,711.682739 
	C1145.667480,704.925903 1145.817505,698.619446 1145.586304,692.326965 
	C1145.520020,690.521179 1144.352051,688.755798 1143.568481,686.646667 
	C1145.808105,686.646667 1149.260620,686.076660 1152.344482,686.895325 
	C1153.812378,687.285034 1155.375122,690.260742 1155.513916,692.165710 
	C1155.946899,698.105469 1155.568115,704.099976 1155.833008,710.058655 
	C1155.924561,712.118408 1156.980103,714.135193 1157.655762,716.371826 
	C1153.231323,716.371826 1148.032349,716.371826 1142.754883,716.371826 
	C1143.755127,714.911377 1144.704590,713.524902 1145.658203,711.682739 
z"/>
<path fill="#EEEEEE" opacity="1.000000" stroke="none" 
	d="
M1171.010376,685.955200 
	C1172.410156,685.748840 1173.810059,685.542480 1175.430664,685.726013 
	C1171.721069,690.123413 1171.898804,693.802307 1176.556519,696.626099 
	C1179.503052,698.412476 1182.833130,699.566528 1185.991089,701.004211 
	C1187.245728,702.158875 1188.500366,703.313538 1189.820801,705.185486 
	C1189.998413,713.236694 1188.040649,715.336365 1180.477905,715.637878 
	C1181.670410,711.563721 1183.005737,707.307312 1176.959106,706.020386 
	C1176.170532,705.653931 1175.381958,705.287476 1174.272949,704.394226 
	C1171.983398,702.904663 1170.014404,701.941956 1168.045288,700.979187 
	C1167.434692,700.528748 1166.823975,700.078308 1166.070435,698.998962 
	C1162.704468,692.167419 1163.501465,690.220825 1171.010376,685.955200 
z"/>
<path fill="#EEEEEE" opacity="1.000000" stroke="none" 
	d="
M1248.584595,700.077209 
	C1248.709106,700.189331 1248.833618,700.301514 1248.965942,700.956177 
	C1249.471313,702.029358 1249.968750,702.559998 1250.466064,703.090698 
	C1251.217773,704.223572 1251.969482,705.356445 1252.837646,707.159180 
	C1254.252930,709.577209 1255.552002,711.325500 1256.850952,713.073730 
	C1256.850952,713.073730 1256.943604,713.079529 1256.942627,713.441284 
	C1257.289307,714.571594 1257.636963,715.340088 1257.984619,716.108582 
	C1256.268799,716.158081 1254.552979,716.207581 1252.211548,715.869873 
	C1250.046631,714.991577 1248.507324,714.500427 1246.968018,714.009338 
	C1246.639526,713.924316 1246.391235,713.734436 1246.102417,712.929688 
	C1245.233643,711.577087 1244.485352,710.734619 1243.737061,709.892151 
	C1243.012085,708.899719 1242.286987,707.907288 1241.269287,706.330566 
	C1240.192383,704.463928 1239.408325,703.181580 1238.624268,701.899231 
	C1238.474609,701.775635 1238.324951,701.652100 1238.130127,700.972107 
	C1237.629395,699.908203 1237.173706,699.400696 1236.718018,698.893188 
	C1236.174316,698.202026 1235.630737,697.510803 1235.048096,696.187988 
	C1234.473389,695.012878 1233.937744,694.469360 1233.402222,693.925842 
	C1233.290283,693.795471 1233.178223,693.665100 1233.055176,692.982178 
	C1232.510620,691.925720 1231.977173,691.421814 1231.443604,690.917908 
	C1231.310791,690.808105 1231.177979,690.698364 1231.027466,689.994873 
	C1230.353271,688.925476 1229.696655,688.449829 1229.040039,687.974182 
	C1229.040039,687.974182 1229.010498,688.004944 1229.308350,687.716675 
	C1235.301392,685.654053 1239.581055,688.012939 1243.266846,692.106323 
	C1243.732178,692.698669 1244.197510,693.291016 1244.838379,694.559326 
	C1246.204102,696.849182 1247.394409,698.463196 1248.584595,700.077209 
z"/>
<path fill="#EAEAEA" opacity="1.000000" stroke="none" 
	d="
M1201.214600,713.955322 
	C1200.919189,713.765747 1200.623779,713.576111 1200.147461,712.830322 
	C1198.698853,710.195862 1197.431152,708.117615 1196.163452,706.039368 
	C1195.988403,703.250610 1195.813354,700.461792 1196.096558,697.135010 
	C1197.728027,694.113342 1198.901245,691.629700 1200.074585,689.146057 
	C1200.074585,689.146057 1200.075073,689.057983 1200.388550,689.075195 
	C1201.164062,688.599915 1201.626099,688.107361 1202.088135,687.614807 
	C1202.230591,687.472168 1202.372925,687.329468 1203.090088,687.146729 
	C1204.096558,686.795654 1204.528320,686.484680 1204.959961,686.173706 
	C1206.090210,685.925110 1207.220459,685.676514 1208.595459,685.738159 
	C1208.845581,686.335999 1208.890991,686.617065 1208.754517,687.186768 
	C1207.733765,691.908691 1206.934937,696.335510 1206.074951,701.093872 
	C1205.937866,702.094360 1205.861694,702.763367 1205.785645,703.432312 
	C1205.933228,704.881348 1206.080688,706.330383 1206.125244,708.541992 
	C1206.696899,710.568787 1207.371582,711.833069 1208.046143,713.097412 
	C1208.811646,713.645813 1209.577148,714.194214 1210.725830,715.101196 
	C1211.408691,715.424500 1211.708008,715.389221 1212.007446,715.354004 
	C1212.460449,715.335144 1212.913330,715.316345 1213.613037,715.599731 
	C1213.854736,716.237732 1213.907471,716.564270 1214.017944,716.881470 
	C1212.931641,716.953735 1211.845337,717.025940 1210.112061,716.729370 
	C1206.714966,715.558838 1203.964844,714.757080 1201.214600,713.955322 
z"/>
<path fill="#F8F8F8" opacity="1.000000" stroke="none" 
	d="
M349.539276,713.120972 
	C349.513245,706.421143 349.487244,699.721313 349.832275,692.415771 
	C350.439301,690.281982 350.675262,688.753906 350.941284,687.031189 
	C355.665314,687.042542 358.105530,689.632935 359.057770,694.009705 
	C359.099670,699.979248 359.141571,705.948792 359.000793,712.753906 
	C355.614288,715.629456 352.483978,716.213562 349.539276,713.120972 
z"/>
<path fill="#EAEAEA" opacity="1.000000" stroke="none" 
	d="
M327.086700,685.425171 
	C327.820282,685.492615 328.553864,685.560059 329.830933,686.053711 
	C331.908508,686.991455 333.442596,687.502930 334.976654,688.014404 
	C334.976654,688.014465 334.999756,687.999023 335.015747,688.334900 
	C335.696869,689.111694 336.361938,689.552612 337.027008,689.993530 
	C337.669495,690.750916 338.312012,691.508301 338.979553,692.878540 
	C339.339386,693.994934 339.674225,694.498596 340.009094,695.002197 
	C340.133728,695.322449 340.258362,695.642639 340.256958,696.703979 
	C339.747742,701.616333 339.364502,705.787476 338.981262,709.958679 
	C338.925476,710.149475 338.869690,710.340271 338.319824,710.770874 
	C337.518066,711.602966 337.210449,712.195251 336.902802,712.787537 
	C336.902802,712.787537 336.928345,712.914246 336.511414,712.950806 
	C333.407135,713.957886 331.312683,717.944824 327.964722,714.297241 
	C331.376129,704.853149 332.441650,695.828918 326.997101,686.678162 
	C327.053741,685.982544 327.070221,685.703857 327.086700,685.425171 
z"/>
<path fill="#EAEAEA" opacity="1.000000" stroke="none" 
	d="
M374.002502,686.999023 
	C374.186646,687.037048 374.370819,687.075134 374.762756,687.595947 
	C375.529968,688.424011 376.089447,688.769287 376.648926,689.114563 
	C377.112946,689.782227 377.576965,690.449829 378.026123,691.909790 
	C378.011322,700.054504 378.011322,707.406921 378.011322,714.752563 
	C370.864471,715.221924 370.119019,714.466187 369.947144,707.667603 
	C369.823608,702.782104 369.391510,697.904419 369.097107,693.023254 
	C369.001343,692.633789 368.905548,692.244385 368.909912,691.265015 
	C368.591736,690.085022 368.173462,689.494995 367.755188,688.904968 
	C366.444427,688.459900 365.133667,688.014893 363.497192,687.324097 
	C363.120300,686.743774 363.069092,686.409302 363.017914,686.074768 
	C363.017914,686.074768 363.222351,685.772400 363.861511,685.875977 
	C367.667969,686.319336 370.835236,686.659180 374.002502,686.999023 
z"/>
<path fill="#EEEEEE" opacity="1.000000" stroke="none" 
	d="
M1120.229980,687.181885 
	C1127.056274,684.331177 1133.791138,688.483215 1133.981079,695.725708 
	C1134.063599,698.871277 1133.998779,702.020813 1133.999756,705.168518 
	C1134.000610,708.279358 1134.000000,711.390198 1134.000000,715.496216 
	C1131.372437,714.693909 1128.985474,713.965149 1126.300293,713.129333 
	C1125.757446,706.945435 1125.512939,700.868591 1125.535278,694.044067 
	C1125.312622,690.537476 1125.773438,687.088623 1121.360718,687.177002 
	C1121.360718,687.177002 1120.917725,687.362854 1120.917725,687.362854 
	C1120.917725,687.362854 1120.442139,687.294434 1120.229980,687.181885 
z"/>
<path fill="#F4F4F4" opacity="1.000000" stroke="none" 
	d="
M310.958374,692.922363 
	C311.175140,692.402771 311.391907,691.883179 312.166931,691.182617 
	C313.144684,690.326294 313.564148,689.651062 313.983582,688.975769 
	C313.983582,688.975769 313.998657,689.001709 314.349915,689.008606 
	C317.185028,688.427917 319.668915,687.840393 322.004944,687.595215 
	C317.878815,696.918701 318.234894,705.853638 322.081543,715.054077 
	C319.073914,714.541077 316.127991,713.724670 313.182068,712.908203 
	C313.182068,712.908203 313.068085,712.925110 313.101135,712.598511 
	C312.648865,711.809143 312.163544,711.346375 311.678223,710.883667 
	C311.527771,710.751831 311.377319,710.619995 311.156067,709.785950 
	C310.635254,704.908447 310.185211,700.733215 309.735168,696.557922 
	C309.728943,696.196350 309.722687,695.834778 310.128082,695.077393 
	C310.679321,694.095154 310.818878,693.508728 310.958374,692.922363 
z"/>
<path fill="#F4F4F4" opacity="1.000000" stroke="none" 
	d="
M278.991699,691.003906 
	C279.309601,691.470825 279.627472,691.937805 279.922729,693.064514 
	C280.278748,694.818848 280.657410,695.913330 281.036072,697.007874 
	C281.117706,697.442383 281.199371,697.876831 280.921936,698.936646 
	C280.746094,703.383179 280.929413,707.204407 281.112732,711.025635 
	C281.166473,711.691650 281.220215,712.357727 281.140381,713.679199 
	C280.988525,714.557129 280.970245,714.779541 280.604797,715.006104 
	C279.793396,715.039307 279.329224,715.068481 278.502686,715.078369 
	C276.752899,714.709656 275.365448,714.360291 273.977966,714.010925 
	C273.718414,713.803589 273.458893,713.596191 272.661011,712.960938 
	C271.692505,712.265564 271.262299,711.998047 270.935974,711.363281 
	C271.306305,708.106079 271.572784,705.216064 271.886047,701.956543 
	C271.606842,700.719727 271.280914,699.852356 270.954987,698.985046 
	C271.017700,697.575806 271.080414,696.166565 271.474426,694.103333 
	C271.535797,691.298279 271.265869,689.147156 271.378448,687.009766 
	C272.520508,687.008667 273.280090,686.993958 274.039642,686.979248 
	C274.211365,687.004639 274.383057,687.029968 274.783020,687.544556 
	C275.691620,688.343018 276.371979,688.652222 277.052338,688.961365 
	C277.052338,688.961365 277.004669,689.002808 277.033051,689.304199 
	C277.704865,690.071655 278.348267,690.537781 278.991699,691.003906 
z"/>
<path fill="#EAEAEA" opacity="1.000000" stroke="none" 
	d="
M270.601196,699.172241 
	C271.280914,699.852356 271.606842,700.719727 271.480011,701.807617 
	C269.566772,702.038452 268.095642,701.938354 266.647827,702.078796 
	C261.208557,702.606384 262.818024,706.898315 262.742859,709.986755 
	C262.665924,713.147278 263.947266,715.514099 267.901062,714.833984 
	C267.970520,715.544861 268.013367,715.827576 268.056183,716.110291 
	C262.977631,717.929016 257.922180,718.023438 254.307190,713.613464 
	C252.752670,711.717041 252.023666,708.363892 252.427795,705.922119 
	C252.687912,704.350586 255.512772,702.642029 257.504883,702.035645 
	C261.640747,700.776611 265.987427,700.210449 270.601196,699.172241 
z"/>
<path fill="#C8C8C8" opacity="1.000000" stroke="none" 
	d="
M1177.121338,706.346924 
	C1183.005737,707.307312 1181.670410,711.563721 1180.477905,715.637878 
	C1188.040649,715.336365 1189.998413,713.236694 1189.932129,705.491699 
	C1192.148315,710.324097 1190.762939,714.688843 1185.589966,716.003296 
	C1181.513428,717.039062 1177.064697,716.877808 1172.791870,716.781860 
	C1169.828125,716.715271 1166.882202,715.856201 1163.227539,715.231445 
	C1163.227539,712.971985 1163.227539,709.627930 1163.227539,704.809875 
	C1164.979126,706.596252 1165.968994,707.537781 1166.880249,708.550171 
	C1168.529541,710.382202 1169.807129,713.108398 1171.841309,713.884033 
	C1174.071777,714.734558 1177.878296,714.799805 1179.402222,713.430786 
	C1182.228760,710.891663 1179.846191,708.403625 1177.121338,706.346924 
z"/>
<path fill="#EAEAEA" opacity="1.000000" stroke="none" 
	d="
M1216.029785,701.872314 
	C1213.642578,702.159058 1211.255371,702.445862 1208.505127,702.397583 
	C1208.098755,701.727173 1208.055298,701.391785 1208.407593,700.948608 
	C1210.570679,700.634827 1212.338257,700.428711 1215.631592,700.044800 
	C1214.288208,695.289429 1213.127930,691.181885 1212.021240,686.847656 
	C1212.160156,686.314392 1212.165283,686.006348 1212.090210,685.697021 
	C1220.525391,685.791321 1224.892822,690.410278 1224.398193,699.533508 
	C1223.660278,700.278625 1223.330933,700.636108 1223.001465,700.993591 
	C1221.546875,701.232178 1220.092163,701.470764 1218.115723,701.473694 
	C1217.072632,701.449463 1216.551147,701.660889 1216.029785,701.872314 
z"/>
<path fill="#C8C8C8" opacity="1.000000" stroke="none" 
	d="
M1185.854248,700.708923 
	C1182.833130,699.566528 1179.503052,698.412476 1176.556519,696.626099 
	C1171.898804,693.802307 1171.721069,690.123413 1175.775513,685.817139 
	C1177.340576,685.642639 1178.786011,685.729309 1180.221680,685.899414 
	C1182.853760,686.211243 1185.480103,686.572327 1189.489624,687.091736 
	C1189.489624,688.837830 1189.572144,691.823242 1189.416382,694.796204 
	C1189.386963,695.357605 1188.209717,696.409912 1187.907593,696.298523 
	C1187.121948,696.008911 1186.462402,695.256287 1185.870605,694.584473 
	C1183.944458,692.398132 1182.377686,689.707886 1180.046753,688.144836 
	C1178.895752,687.372925 1176.371948,688.648071 1174.469360,688.996948 
	C1174.815918,690.774841 1174.547363,693.324768 1175.625854,694.183838 
	C1178.695679,696.629456 1182.314697,698.385925 1185.854248,700.708923 
z"/>
<path fill="#C8C8C8" opacity="1.000000" stroke="none" 
	d="
M270.995941,686.996094 
	C271.265869,689.147156 271.535797,691.298279 271.548798,693.684448 
	C270.884399,693.506165 270.118958,693.088806 270.123657,692.680176 
	C270.182587,687.515015 267.209412,686.625793 262.255005,687.391724 
	C262.255005,689.036926 262.254547,690.630859 262.255127,692.224854 
	C262.255981,694.561584 262.711853,697.239502 258.903870,696.749329 
	C255.566879,696.319702 254.280884,694.163025 254.790161,691.128784 
	C255.494904,686.930054 258.775146,685.742126 262.486481,685.410095 
	C264.133270,685.262817 265.797546,685.311096 267.894043,685.721191 
	C269.224152,686.449036 270.114075,686.726318 271.002014,687.001770 
	C271.000000,687.000000 270.995941,686.996094 270.995941,686.996094 
z"/>
<path fill="#C8C8C8" opacity="1.000000" stroke="none" 
	d="
M235.757416,713.456299 
	C235.629211,714.124207 235.043610,714.860168 234.674652,715.692139 
	C234.525864,716.027649 234.851334,716.573486 235.216507,717.167114 
	C232.090729,717.214355 228.699356,717.246887 225.331192,716.983093 
	C222.365814,716.750916 219.426392,716.187500 215.658783,715.654846 
	C215.658783,713.321350 215.658783,709.432617 215.658783,705.543823 
	C216.060364,705.335449 216.461945,705.127075 216.863525,704.918701 
	C217.842239,706.309875 218.943680,707.631531 219.778610,709.104248 
	C223.566132,715.784668 229.405075,717.482422 235.757416,713.456299 
z"/>
<path fill="#C8C8C8" opacity="1.000000" stroke="none" 
	d="
M368.987427,693.407837 
	C369.391510,697.904419 369.823608,702.782104 369.947144,707.667603 
	C370.119019,714.466187 370.864471,715.221924 378.011322,714.752563 
	C378.011322,707.406921 378.011322,700.054504 378.073761,692.219604 
	C378.494446,697.593933 378.709290,703.464844 379.288544,709.299622 
	C379.491821,711.346802 380.590088,713.305115 381.360992,715.539795 
	C374.419861,718.932556 368.917572,715.770081 368.897522,707.207153 
	C368.887054,702.735596 368.884125,698.263977 368.987427,693.407837 
z"/>
<path fill="#C8C8C8" opacity="1.000000" stroke="none" 
	d="
M228.146179,677.256714 
	C228.206604,676.409180 228.606567,675.484375 229.011169,674.251038 
	C231.123505,674.070190 233.359329,673.795837 235.309692,674.417419 
	C238.464188,675.422607 241.423691,678.043518 244.515091,673.024780 
	C244.915207,673.467834 245.315323,673.910889 245.715439,674.353882 
	C245.715439,677.839722 245.763809,681.327087 245.651169,684.809265 
	C245.637833,685.221313 244.701385,685.967651 244.265961,685.917969 
	C243.581024,685.839966 242.728699,685.367371 242.353561,684.795471 
	C241.359940,683.280334 240.748978,681.502808 239.690369,680.044067 
	C236.636871,675.836304 233.303818,675.049255 228.146179,677.256714 
z"/>
<path fill="#C8C8C8" opacity="1.000000" stroke="none" 
	d="
M322.152771,687.252869 
	C319.668915,687.840393 317.185028,688.427917 314.337769,688.998535 
	C317.240479,687.385864 320.506622,685.790039 323.908539,684.127930 
	C321.838562,676.992188 325.217194,673.052490 333.115326,674.921570 
	C331.096375,677.546509 329.165253,680.057251 327.615234,682.783936 
	C327.996368,682.999939 328.002197,683.004272 328.002197,683.004272 
	C327.175873,683.162231 326.349579,683.320251 325.523285,683.478271 
	C325.765228,684.005798 326.007172,684.533386 326.667908,685.243042 
	C327.070221,685.703857 327.053741,685.982544 326.594482,686.665405 
	C324.818695,687.130676 323.485748,687.191772 322.152771,687.252869 
z"/>
<path fill="#C8C8C8" opacity="1.000000" stroke="none" 
	d="
M1248.491211,699.737427 
	C1247.394409,698.463196 1246.204102,696.849182 1244.949951,694.922729 
	C1246.910156,693.092834 1248.934204,691.575439 1251.499146,689.652588 
	C1249.406250,688.498291 1248.314453,687.896057 1245.832886,686.527344 
	C1251.077637,686.527344 1254.849243,686.527344 1259.906128,686.527344 
	C1253.523682,689.669128 1248.527710,692.543335 1248.491211,699.737427 
z"/>
<path fill="#C8C8C8" opacity="1.000000" stroke="none" 
	d="
M1238.689209,702.323730 
	C1239.408325,703.181580 1240.192383,704.463928 1241.040283,706.038330 
	C1239.257935,708.377808 1237.411499,710.425354 1235.299683,712.767273 
	C1236.766846,713.768677 1237.885742,714.532288 1240.010986,715.982788 
	C1235.210205,715.982788 1231.562500,715.982788 1226.377197,715.982788 
	C1232.939453,712.400085 1237.458130,708.951721 1238.689209,702.323730 
z"/>
<path fill="#EAEAEA" opacity="1.000000" stroke="none" 
	d="
M1150.071289,674.374451 
	C1153.534790,674.779907 1154.893555,676.879517 1154.026123,679.552856 
	C1153.563477,680.978271 1151.382690,682.761719 1150.019165,682.727356 
	C1148.592651,682.691345 1146.450684,680.915894 1145.982422,679.462341 
	C1145.094971,676.708374 1146.678223,674.780334 1150.071289,674.374451 
z"/>
<path fill="#EAEAEA" opacity="1.000000" stroke="none" 
	d="
M1097.956177,675.796448 
	C1095.416870,676.531128 1094.435181,677.999207 1094.473267,680.843262 
	C1094.581787,688.959900 1094.281738,697.082031 1093.793701,705.262634 
	C1093.094971,704.577820 1092.745117,703.832336 1092.395142,703.086853 
	C1092.379395,695.635376 1092.511475,688.178223 1092.225708,680.737122 
	C1092.167480,679.220764 1090.538818,677.764709 1089.396973,675.866455 
	C1089.269409,675.209534 1089.256836,674.973389 1089.122070,674.743774 
	C1091.779907,674.594971 1094.437622,674.446167 1097.427246,674.699463 
	C1097.768677,675.349243 1097.834351,675.580872 1097.956177,675.796448 
z"/>
<path fill="#C8C8C8" opacity="1.000000" stroke="none" 
	d="
M362.638794,686.054688 
	C363.069092,686.409302 363.120300,686.743774 363.069000,687.312012 
	C361.751648,689.484558 360.536743,691.423401 359.189819,693.686035 
	C358.105530,689.632935 355.665314,687.042542 350.941284,687.031189 
	C350.675262,688.753906 350.439301,690.281982 349.933899,691.966431 
	C348.734039,690.130920 347.803589,688.139099 346.398071,685.130188 
	C350.548248,685.981323 354.502899,686.792358 358.457581,687.603394 
	C358.417877,688.014893 358.378174,688.426392 358.338501,688.837830 
	C359.645538,687.903442 360.952606,686.969055 362.638794,686.054688 
z"/>
<path fill="#C8C8C8" opacity="1.000000" stroke="none" 
	d="
M313.275208,713.221619 
	C316.127991,713.724670 319.073914,714.541077 322.410339,715.120483 
	C324.460999,714.796021 326.121185,714.708740 327.781342,714.621460 
	C331.312683,717.944824 333.407135,713.957886 336.446899,712.946899 
	C331.097534,718.993286 321.313110,719.255798 313.275208,713.221619 
z"/>
<path fill="#C8C8C8" opacity="1.000000" stroke="none" 
	d="
M349.247864,713.269409 
	C352.483978,716.213562 355.614288,715.629456 358.959900,713.209961 
	C360.326263,713.546265 361.550812,714.262085 363.836395,715.598083 
	C357.371307,715.598083 351.945160,715.598083 345.602020,715.598083 
	C347.107025,714.619934 348.031738,714.018921 349.247864,713.269409 
z"/>
<path fill="#C8C8C8" opacity="1.000000" stroke="none" 
	d="
M1062.039795,677.314758 
	C1062.382935,679.848022 1062.927612,682.853333 1062.994629,685.869263 
	C1063.115234,691.309509 1062.949829,696.756104 1062.685181,702.538208 
	C1062.319702,694.514832 1062.172852,686.153198 1062.039795,677.314758 
z"/>
<path fill="#C8C8C8" opacity="1.000000" stroke="none" 
	d="
M1214.276733,717.009705 
	C1213.907471,716.564270 1213.854736,716.237732 1213.946655,715.668335 
	C1216.967163,713.138062 1219.900635,710.841370 1222.614380,708.716675 
	C1223.867310,711.979370 1221.231812,715.204041 1214.276733,717.009705 
z"/>
<path fill="#C8C8C8" opacity="1.000000" stroke="none" 
	d="
M1243.252441,691.787720 
	C1239.581055,688.012939 1235.301392,685.654053 1229.316162,687.698364 
	C1228.555176,687.890869 1228.056763,687.882629 1227.624390,687.709412 
	C1227.379883,687.611450 1227.243652,687.242676 1227.063965,686.991943 
	C1233.714111,684.242432 1239.341553,685.802063 1243.252441,691.787720 
z"/>
<path fill="#C8C8C8" opacity="1.000000" stroke="none" 
	d="
M1170.727905,685.867188 
	C1163.501465,690.220825 1162.704468,692.167419 1165.932861,698.746277 
	C1160.807129,693.229980 1162.538818,688.103516 1170.727905,685.867188 
z"/>
<path fill="#C8C8C8" opacity="1.000000" stroke="none" 
	d="
M1081.310059,717.037415 
	C1080.948120,716.591125 1080.885742,716.252625 1080.873047,715.660461 
	C1083.359741,714.301514 1085.796875,713.196167 1088.701294,712.200134 
	C1089.475220,712.550903 1089.781616,712.792358 1090.088013,713.033813 
	C1087.261963,714.404358 1084.435791,715.774780 1081.310059,717.037415 
z"/>
<path fill="#C8C8C8" opacity="1.000000" stroke="none" 
	d="
M227.690018,673.937256 
	C224.419891,676.336365 220.847916,678.634827 216.977753,681.029541 
	C218.231735,675.732178 222.635864,674.528687 227.690018,673.937256 
z"/>
<path fill="#C8C8C8" opacity="1.000000" stroke="none" 
	d="
M309.438904,696.791626 
	C310.185211,700.733215 310.635254,704.908447 311.062531,709.500732 
	C310.407410,705.620300 309.775055,701.322754 309.438904,696.791626 
z"/>
<path fill="#C8C8C8" opacity="1.000000" stroke="none" 
	d="
M339.267151,709.780579 
	C339.364502,705.787476 339.747742,701.616333 340.202637,696.961304 
	C340.033875,700.852478 339.793457,705.227478 339.267151,709.780579 
z"/>
<path fill="#C8C8C8" opacity="1.000000" stroke="none" 
	d="
M281.268402,710.658997 
	C280.929413,707.204407 280.746094,703.383179 280.844543,699.263977 
	C281.225586,702.741455 281.324829,706.516907 281.268402,710.658997 
z"/>
<path fill="#C8C8C8" opacity="1.000000" stroke="none" 
	d="
M220.492798,694.140198 
	C223.260254,695.539734 226.103928,697.241760 229.020630,699.259888 
	C226.252121,697.864868 223.410553,696.153748 220.492798,694.140198 
z"/>
<path fill="#C8C8C8" opacity="1.000000" stroke="none" 
	d="
M373.842072,686.704590 
	C370.835236,686.659180 367.667969,686.319336 364.043823,685.884766 
	C366.951813,685.996826 370.316742,686.203552 373.842072,686.704590 
z"/>
<path fill="#C8C8C8" opacity="1.000000" stroke="none" 
	d="
M1201.315918,714.255005 
	C1203.964844,714.757080 1206.714966,715.558838 1209.715332,716.618652 
	C1207.115967,716.102600 1204.266479,715.328613 1201.315918,714.255005 
z"/>
<path fill="#C8C8C8" opacity="1.000000" stroke="none" 
	d="
M1199.761963,689.214966 
	C1198.901245,691.629700 1197.728027,694.113342 1196.276611,696.798767 
	C1197.148804,694.428284 1198.299072,691.856018 1199.761963,689.214966 
z"/>
<path fill="#C8C8C8" opacity="1.000000" stroke="none" 
	d="
M1196.058838,706.294800 
	C1197.431152,708.117615 1198.698853,710.195862 1199.987549,712.617554 
	C1198.657349,710.824158 1197.305908,708.687195 1196.058838,706.294800 
z"/>
<path fill="#C8C8C8" opacity="1.000000" stroke="none" 
	d="
M1258.218750,716.245239 
	C1257.636963,715.340088 1257.289307,714.571594 1256.927979,713.485352 
	C1258.208252,713.874695 1259.502197,714.581848 1261.425537,715.632935 
	C1260.087402,715.970093 1259.270142,716.176025 1258.218750,716.245239 
z"/>
<path fill="#C8C8C8" opacity="1.000000" stroke="none" 
	d="
M230.691620,688.775513 
	C229.252777,687.117493 227.659210,685.166992 226.210541,682.840393 
	C227.749237,684.470581 229.143066,686.476807 230.691620,688.775513 
z"/>
<path fill="#C8C8C8" opacity="1.000000" stroke="none" 
	d="
M1070.270508,715.219604 
	C1072.560303,715.429321 1075.015381,715.907166 1077.723877,716.650757 
	C1075.463501,716.440247 1072.949829,715.963989 1070.270508,715.219604 
z"/>
<path fill="#C8C8C8" opacity="1.000000" stroke="none" 
	d="
M233.132004,702.307495 
	C234.629166,703.801270 236.220810,705.620422 237.614838,707.670776 
	C236.020325,706.145630 234.623398,704.389343 233.132004,702.307495 
z"/>
<path fill="#EAEAEA" opacity="1.000000" stroke="none" 
	d="
M1121.655029,687.434937 
	C1125.773438,687.088623 1125.312622,690.537476 1125.616943,693.572876 
	C1124.270996,691.797119 1123.110107,689.744995 1121.655029,687.434937 
z"/>
<path fill="#C8C8C8" opacity="1.000000" stroke="none" 
	d="
M1075.325928,712.838989 
	C1074.328979,710.827148 1073.253662,708.473389 1072.313232,705.735046 
	C1073.381226,707.732666 1074.314209,710.114868 1075.325928,712.838989 
z"/>
<path fill="#C8C8C8" opacity="1.000000" stroke="none" 
	d="
M1073.118896,676.362061 
	C1072.335693,675.877441 1071.853394,675.342590 1071.236572,674.613892 
	C1072.504883,674.420166 1073.907715,674.420166 1075.310425,674.420166 
	C1075.386963,674.701416 1075.463623,674.982605 1075.540161,675.263855 
	C1074.833374,675.613159 1074.126465,675.962463 1073.118896,676.362061 
z"/>
<path fill="#C8C8C8" opacity="1.000000" stroke="none" 
	d="
M1060.828369,674.414185 
	C1061.059448,674.971741 1061.146118,675.354858 1061.214600,675.938049 
	C1060.301147,675.913025 1059.406128,675.687988 1057.316650,675.162598 
	C1059.188843,674.649536 1059.936523,674.444702 1060.828369,674.414185 
z"/>
<path fill="#C8C8C8" opacity="1.000000" stroke="none" 
	d="
M280.951996,715.002014 
	C280.970245,714.779541 280.988525,714.557129 281.097778,714.012451 
	C282.387268,714.215942 283.585876,714.741699 285.762085,715.696289 
	C284.031403,716.062866 283.229645,716.232666 282.087524,716.023560 
	C281.482117,715.430420 281.217072,715.216248 280.951996,715.002014 
z"/>
<path fill="#C8C8C8" opacity="1.000000" stroke="none" 
	d="
M1256.785400,712.737183 
	C1255.552002,711.325500 1254.252930,709.577209 1252.947266,707.481506 
	C1254.200317,708.889587 1255.460083,710.645081 1256.785400,712.737183 
z"/>
<path fill="#C8C8C8" opacity="1.000000" stroke="none" 
	d="
M1168.170044,701.270874 
	C1170.014404,701.941956 1171.983398,702.904663 1174.022461,704.182373 
	C1172.159912,703.519043 1170.227295,702.540771 1168.170044,701.270874 
z"/>
<path fill="#C8C8C8" opacity="1.000000" stroke="none" 
	d="
M1247.032959,714.308228 
	C1248.507324,714.500427 1250.046631,714.991577 1251.796509,715.754761 
	C1250.370728,715.553467 1248.734375,715.080261 1247.032959,714.308228 
z"/>
<path fill="#C8C8C8" opacity="1.000000" stroke="none" 
	d="
M274.034119,714.312500 
	C275.365448,714.360291 276.752899,714.709656 278.555939,715.303955 
	C278.971527,715.548828 279.002960,716.012634 279.002960,716.012634 
	C277.365387,715.546509 275.727814,715.080322 274.034119,714.312500 
z"/>
<path fill="#C8C8C8" opacity="1.000000" stroke="none" 
	d="
M334.870911,687.739868 
	C333.442596,687.502930 331.908508,686.991455 330.174011,686.193481 
	C331.570770,686.426392 333.167999,686.945862 334.870911,687.739868 
z"/>
<path fill="#C8C8C8" opacity="1.000000" stroke="none" 
	d="
M268.423035,716.043945 
	C268.013367,715.827576 267.970520,715.544861 268.063477,714.596680 
	C269.076843,713.197632 269.954498,712.464050 270.832123,711.730469 
	C271.262299,711.998047 271.692505,712.265564 272.312042,712.605225 
	C271.264221,713.777405 270.027069,714.877502 268.423035,716.043945 
z"/>
<path fill="#C8C8C8" opacity="1.000000" stroke="none" 
	d="
M1062.899170,706.223267 
	C1063.676147,707.326599 1064.379150,708.743042 1065.084473,710.474854 
	C1064.333008,709.372314 1063.579102,707.954346 1062.899170,706.223267 
z"/>
<path fill="#C8C8C8" opacity="1.000000" stroke="none" 
	d="
M237.256592,717.121521 
	C238.447861,716.338196 239.900696,715.653870 241.710495,715.002686 
	C240.551025,715.764038 239.034576,716.492310 237.256592,717.121521 
z"/>
<path fill="#C8C8C8" opacity="1.000000" stroke="none" 
	d="
M281.143066,696.744141 
	C280.657410,695.913330 280.278748,694.818848 279.951355,693.359619 
	C280.418457,694.156799 280.834259,695.318604 281.143066,696.744141 
z"/>
<path fill="#C8C8C8" opacity="1.000000" stroke="none" 
	d="
M245.219925,712.776245 
	C245.518906,711.604980 246.117813,710.361450 246.986618,708.997314 
	C246.677628,710.152466 246.098740,711.428223 245.219925,712.776245 
z"/>
<path fill="#C8C8C8" opacity="1.000000" stroke="none" 
	d="
M1208.054443,712.795166 
	C1207.371582,711.833069 1206.696899,710.568787 1206.102783,708.979126 
	C1206.809937,709.933533 1207.436401,711.213196 1208.054443,712.795166 
z"/>
<path fill="#C8C8C8" opacity="1.000000" stroke="none" 
	d="
M1211.861816,685.512573 
	C1212.165283,686.006348 1212.160156,686.314392 1211.645752,686.854370 
	C1210.469971,687.022278 1209.723145,686.956970 1208.976318,686.891724 
	C1208.890991,686.617065 1208.845581,686.335999 1208.928223,685.853027 
	C1209.888672,685.547791 1210.760986,685.437927 1211.861816,685.512573 
z"/>
<path fill="#C8C8C8" opacity="1.000000" stroke="none" 
	d="
M217.391754,690.233887 
	C218.290070,690.937988 219.197189,691.955017 220.135910,693.280396 
	C219.245209,692.574829 218.322891,691.560730 217.391754,690.233887 
z"/>
<path fill="#C8C8C8" opacity="1.000000" stroke="none" 
	d="
M1243.729492,710.183838 
	C1244.485352,710.734619 1245.233643,711.577087 1245.988525,712.718994 
	C1245.237305,712.170776 1244.479614,711.323120 1243.729492,710.183838 
z"/>
<path fill="#C8C8C8" opacity="1.000000" stroke="none" 
	d="
M273.891663,686.724915 
	C273.280090,686.993958 272.520508,687.008667 271.378448,687.009766 
	C270.995941,686.996094 271.000000,687.000000 271.004669,686.812622 
	C270.894348,686.389221 270.862091,686.142395 270.912506,685.884766 
	C271.856201,686.080078 272.799927,686.275330 273.891663,686.724915 
z"/>
<path fill="#F4F4F4" opacity="1.000000" stroke="none" 
	d="
M270.582947,685.728760 
	C270.862091,686.142395 270.894348,686.389221 271.006653,686.814392 
	C270.114075,686.726318 269.224152,686.449036 268.219421,685.894165 
	C268.820831,685.601990 269.537109,685.587402 270.582947,685.728760 
z"/>
<path fill="#C8C8C8" opacity="1.000000" stroke="none" 
	d="
M1088.951172,674.595581 
	C1089.256836,674.973389 1089.269409,675.209534 1089.067627,675.610107 
	C1088.623291,675.738037 1088.270996,675.708069 1087.918823,675.678101 
	C1088.205933,675.267883 1088.493164,674.857666 1088.951172,674.595581 
z"/>
<path fill="#C8C8C8" opacity="1.000000" stroke="none" 
	d="
M1208.011963,701.056396 
	C1208.055298,701.391785 1208.098755,701.727173 1208.105469,702.313721 
	C1207.479492,702.738708 1206.890015,702.912537 1206.043213,703.259338 
	C1205.861694,702.763367 1205.937866,702.094360 1206.394043,701.112366 
	C1207.186890,700.885010 1207.599365,700.970703 1208.011963,701.056396 
z"/>
<path fill="#C8C8C8" opacity="1.000000" stroke="none" 
	d="
M230.036438,700.297241 
	C230.608826,700.293884 231.285187,700.552429 232.040802,701.091431 
	C231.460190,701.101013 230.800293,700.830017 230.036438,700.297241 
z"/>
<path fill="#C8C8C8" opacity="1.000000" stroke="none" 
	d="
M310.742126,692.987915 
	C310.818878,693.508728 310.679321,694.095154 310.267639,694.841309 
	C310.172302,694.351929 310.349091,693.702698 310.742126,692.987915 
z"/>
<path fill="#C8C8C8" opacity="1.000000" stroke="none" 
	d="
M1098.157959,675.849304 
	C1097.834351,675.580872 1097.768677,675.349243 1097.814209,674.928223 
	C1098.134277,674.760254 1098.399170,674.765747 1098.664185,674.771301 
	C1098.562622,675.148254 1098.461182,675.525208 1098.157959,675.849304 
z"/>
<path fill="#C8C8C8" opacity="1.000000" stroke="none" 
	d="
M226.591934,680.332642 
	C226.500320,679.718689 226.617355,678.889221 227.052673,677.932739 
	C227.180832,678.576172 226.990707,679.346558 226.591934,680.332642 
z"/>
<path fill="#C8C8C8" opacity="1.000000" stroke="none" 
	d="
M340.108215,694.806519 
	C339.674225,694.498596 339.339386,693.994934 339.038513,693.174194 
	C339.450806,693.441711 339.829071,694.026245 340.108215,694.806519 
z"/>
<path fill="#C8C8C8" opacity="1.000000" stroke="none" 
	d="
M1231.454834,691.195984 
	C1231.977173,691.421814 1232.510620,691.925720 1233.016113,692.727295 
	C1232.480835,692.507996 1231.973511,691.991028 1231.454834,691.195984 
z"/>
<path fill="#C8C8C8" opacity="1.000000" stroke="none" 
	d="
M241.833130,695.784180 
	C241.286194,695.781067 240.635788,695.531616 239.924622,695.009277 
	C240.485794,695.003540 241.107727,695.270691 241.833130,695.784180 
z"/>
<path fill="#C8C8C8" opacity="1.000000" stroke="none" 
	d="
M1233.396973,694.212769 
	C1233.937744,694.469360 1234.473389,695.012878 1234.957397,695.866577 
	C1234.401245,695.617798 1233.896484,695.058777 1233.396973,694.212769 
z"/>
<path fill="#C8C8C8" opacity="1.000000" stroke="none" 
	d="
M236.972748,692.702515 
	C236.394730,692.705017 235.716782,692.448242 234.958405,691.912842 
	C235.542923,691.903809 236.207886,692.173523 236.972748,692.702515 
z"/>
<path fill="#C8C8C8" opacity="1.000000" stroke="none" 
	d="
M1077.976929,714.702148 
	C1077.425171,714.675354 1076.700073,714.430786 1075.893433,713.886353 
	C1076.475830,713.885742 1077.139648,714.184998 1077.976929,714.702148 
z"/>
<path fill="#C8C8C8" opacity="1.000000" stroke="none" 
	d="
M367.771057,689.175781 
	C368.173462,689.494995 368.591736,690.085022 368.938354,690.963623 
	C368.506744,690.650330 368.146820,690.048462 367.771057,689.175781 
z"/>
<path fill="#C8C8C8" opacity="1.000000" stroke="none" 
	d="
M313.682251,689.012939 
	C313.564148,689.651062 313.144684,690.326294 312.400726,691.018555 
	C312.511108,690.373657 312.946014,689.711914 313.682251,689.012939 
z"/>
<path fill="#C8C8C8" opacity="1.000000" stroke="none" 
	d="
M243.182404,714.557495 
	C243.359665,714.012878 243.811661,713.461426 244.551361,712.911377 
	C244.378433,713.458679 243.917770,714.004639 243.182404,714.557495 
z"/>
<path fill="#C8C8C8" opacity="1.000000" stroke="none" 
	d="
M1236.710205,699.155640 
	C1237.173706,699.400696 1237.629395,699.908203 1238.049927,700.692261 
	C1237.577271,700.451904 1237.139893,699.935059 1236.710205,699.155640 
z"/>
<path fill="#C8C8C8" opacity="1.000000" stroke="none" 
	d="
M336.995361,689.685913 
	C336.361938,689.552612 335.696869,689.111694 335.009033,688.346558 
	C335.645447,688.474365 336.304565,688.926331 336.995361,689.685913 
z"/>
<path fill="#C8C8C8" opacity="1.000000" stroke="none" 
	d="
M278.921173,690.707214 
	C278.348267,690.537781 277.704865,690.071655 277.048767,689.277405 
	C277.640930,689.436340 278.245789,689.923401 278.921173,690.707214 
z"/>
<path fill="#C8C8C8" opacity="1.000000" stroke="none" 
	d="
M1092.248291,703.229797 
	C1092.745117,703.832336 1093.094971,704.577820 1093.609619,705.706787 
	C1093.774170,706.090332 1093.755615,706.104065 1093.388062,705.779419 
	C1092.735474,705.293335 1092.450317,705.131958 1092.165283,704.970581 
	C1092.144043,704.437988 1092.122681,703.905334 1092.248291,703.229797 
z"/>
<path fill="#EAEAEA" opacity="1.000000" stroke="none" 
	d="
M1092.009033,705.316833 
	C1092.450317,705.131958 1092.735474,705.293335 1093.382812,705.790222 
	C1093.492920,707.121460 1093.240845,708.117249 1092.393311,709.058105 
	C1091.550415,708.861145 1091.302856,708.719055 1091.055420,708.576965 
	C1091.321167,707.605652 1091.586914,706.634338 1092.009033,705.316833 
z"/>
<path fill="#C8C8C8" opacity="1.000000" stroke="none" 
	d="
M1201.822754,687.588013 
	C1201.626099,688.107361 1201.164062,688.599915 1200.430664,689.088013 
	C1200.625366,688.576111 1201.091431,688.068665 1201.822754,687.588013 
z"/>
<path fill="#C8C8C8" opacity="1.000000" stroke="none" 
	d="
M1229.184326,688.225708 
	C1229.696655,688.449829 1230.353271,688.925476 1230.985107,689.739868 
	C1230.416382,689.544800 1229.872437,689.011047 1229.184326,688.225708 
z"/>
<path fill="#C8C8C8" opacity="1.000000" stroke="none" 
	d="
M376.604065,688.856323 
	C376.089447,688.769287 375.529968,688.424011 374.938721,687.816406 
	C375.457672,687.902100 376.008423,688.250061 376.604065,688.856323 
z"/>
<path fill="#C8C8C8" opacity="1.000000" stroke="none" 
	d="
M276.966309,688.687317 
	C276.371979,688.652222 275.691620,688.343018 274.956726,687.738525 
	C275.561584,687.766541 276.220947,688.089905 276.966309,688.687317 
z"/>
<path fill="#C8C8C8" opacity="1.000000" stroke="none" 
	d="
M1204.787109,686.081543 
	C1204.528320,686.484680 1204.096558,686.795654 1203.384277,687.076416 
	C1203.607178,686.693909 1204.110840,686.341675 1204.787109,686.081543 
z"/>
<path fill="#C8C8C8" opacity="1.000000" stroke="none" 
	d="
M1223.167480,701.115479 
	C1223.330933,700.636108 1223.660278,700.278625 1224.245850,699.918335 
	C1224.112549,700.356201 1223.723145,700.796753 1223.167480,701.115479 
z"/>
<path fill="#C8C8C8" opacity="1.000000" stroke="none" 
	d="
M1250.461426,702.814880 
	C1249.968750,702.559998 1249.471313,702.029358 1249.010254,701.203552 
	C1249.516602,701.451965 1249.986694,701.995483 1250.461426,702.814880 
z"/>
<path fill="#C8C8C8" opacity="1.000000" stroke="none" 
	d="
M1216.209839,701.976318 
	C1216.551147,701.660889 1217.072632,701.449463 1217.747314,701.423706 
	C1217.397095,701.766296 1216.893555,701.923340 1216.209839,701.976318 
z"/>
<path fill="#C8C8C8" opacity="1.000000" stroke="none" 
	d="
M237.229156,710.291382 
	C237.397141,710.712097 237.369019,711.336975 237.127991,712.043213 
	C236.954391,711.581604 236.993713,711.038513 237.229156,710.291382 
z"/>
<path fill="#C8C8C8" opacity="1.000000" stroke="none" 
	d="
M311.665192,711.148071 
	C312.163544,711.346375 312.648865,711.809143 313.115479,712.542725 
	C312.615234,712.346497 312.133667,711.879456 311.665192,711.148071 
z"/>
<path fill="#C8C8C8" opacity="1.000000" stroke="none" 
	d="
M337.145325,712.699219 
	C337.210449,712.195251 337.518066,711.602966 338.085846,710.955688 
	C338.026611,711.470764 337.707245,712.040771 337.145325,712.699219 
z"/>
<path fill="#EAEAEA" opacity="1.000000" stroke="none" 
	d="
M279.368835,716.117004 
	C279.002960,716.012634 278.971527,715.548828 278.918274,715.323242 
	C279.329224,715.068481 279.793396,715.039307 280.604797,715.006104 
	C281.217072,715.216248 281.482117,715.430420 281.863007,715.876831 
	C281.230804,716.146423 280.482788,716.183899 279.368835,716.117004 
z"/>
<path fill="#C8C8C8" opacity="1.000000" stroke="none" 
	d="
M327.997009,683.002319 
	C327.997650,683.004700 328.086487,683.184265 328.086487,683.184265 
	C328.086487,683.184265 328.131165,682.956970 328.066681,682.980591 
	C328.002197,683.004272 327.996368,682.999939 327.997009,683.002319 
z"/>
<path fill="#EAEAEA" opacity="1.000000" stroke="none" 
	d="
M1092.138672,709.262329 
	C1092.040283,709.797607 1091.601196,710.073792 1091.162231,710.349976 
	C1090.968750,709.974426 1090.775391,709.598755 1090.818726,708.900024 
	C1091.302856,708.719055 1091.550415,708.861145 1092.138672,709.262329 
z"/>
<path fill="#C8C8C8" opacity="1.000000" stroke="none" 
	d="
M1211.777832,715.194519 
	C1211.708008,715.389221 1211.408691,715.424500 1211.050537,715.273743 
	C1211.177246,715.070190 1211.362793,715.052612 1211.777832,715.194519 
z"/>
<path fill="#EAEAEA" opacity="1.000000" stroke="none" 
	d="
M1090.283447,712.589355 
	C1089.781616,712.792358 1089.475220,712.550903 1089.031860,712.046082 
	C1089.422974,711.903442 1089.951050,712.024170 1090.283447,712.589355 
z"/>
<path fill="#0E0E0E" opacity="1.000000" stroke="none" 
	d="
M459.504089,646.507263 
	C460.574249,643.899719 461.475128,641.633057 462.903168,638.039978 
	C468.605560,651.788269 473.798981,664.309387 479.252625,677.457947 
	C468.098389,677.457947 457.797638,677.457947 446.738770,677.457947 
	C451.069458,666.933838 455.202118,656.890991 459.504089,646.507263 
z"/>
<path fill="#0E0E0E" opacity="1.000000" stroke="none" 
	d="
M861.099365,653.128662 
	C863.106018,648.362976 864.999451,643.965210 867.423828,638.334229 
	C873.110718,651.968323 878.338440,664.501526 883.790588,677.572876 
	C872.677673,677.572876 862.430054,677.572876 851.209656,677.572876 
	C854.566650,669.305603 857.776367,661.401062 861.099365,653.128662 
z"/>
<path fill="#0E0E0E" opacity="1.000000" stroke="none" 
	d="
M1208.407593,700.948608 
	C1207.599365,700.970703 1207.186890,700.885010 1206.455078,700.780884 
	C1206.934937,696.335510 1207.733765,691.908691 1208.754517,687.186768 
	C1209.723145,686.956970 1210.469971,687.022278 1211.592285,687.080933 
	C1213.127930,691.181885 1214.288208,695.289429 1215.631592,700.044800 
	C1212.338257,700.428711 1210.570679,700.634827 1208.407593,700.948608 
z"/>
<path fill="#0E0E0E" opacity="1.000000" stroke="none" 
	d="
M327.964722,714.297302 
	C326.121185,714.708740 324.460999,714.796021 322.472046,714.817017 
	C318.234894,705.853638 317.878815,696.918701 322.004944,687.595215 
	C323.485748,687.191772 324.818695,687.130676 326.554321,687.082275 
	C332.441650,695.828918 331.376129,704.853149 327.964722,714.297302 
z"/>
<path fill="#0E0E0E" opacity="1.000000" stroke="none" 
	d="
M270.935974,711.363281 
	C269.954498,712.464050 269.076843,713.197632 268.036835,714.168579 
	C263.947266,715.514099 262.665924,713.147278 262.742859,709.986755 
	C262.818024,706.898315 261.208557,702.606384 266.647827,702.078796 
	C268.095642,701.938354 269.566772,702.038452 271.433228,702.177124 
	C271.572784,705.216064 271.306305,708.106079 270.935974,711.363281 
z"/>
</svg>